M48
;Layer_Color=9474304
;FILE_FORMAT=4:3
METRIC,LZ
;TYPE=NON_PLATED
T06F00S00C0.600
T07F00S00C2.500
%
T06
X0007009Y0008619
Y0009619
Y0010619
Y0011619
Y0012619
Y0013619
X0033286Y0014098
Y0013098
Y0012098
Y0011098
Y0015098
Y0016098
X003319Y0042407
Y0043407
Y0044407
Y0045407
Y0046407
Y0047407
X0006989Y004696
Y004596
Y004496
Y004396
Y004296
Y004796
T07
X0002475Y000245
X003775
Y005535
X0002475
M30
