M48
;Layer_Color=9474304
;FILE_FORMAT=4:3
METRIC,LZ
;TYPE=PLATED
T01F00S00C0.300
T02F00S00C0.500
T03F00S00C0.889
T04F00S00C1.300
T05F00S00C1.600
%
T01
X0011171Y0009437
X0011289Y0024837
X0011274Y0026234
X0011Y002815
X001104Y0029305
X0009112Y0032363
X000855Y00341
X0008705Y0036238
X00087Y00377
X0009624Y003771
X00096Y00255
X001162Y002304
X001662
X002105Y0022475
X002395Y002395
X002457Y0026137
X002435Y002775
X0023421Y0028462
X002105Y002715
X0017303Y0027483
X0015103Y0027248
X001357Y0030094
X0012843Y0032255
X0014265Y0033389
X0013519Y0034281
X00124Y003595
X0013597Y0037677
X001595Y0032668
X00222Y00325
X0021932Y0036378
X002605Y00364
X0027238Y0037702
X0027085Y003435
X00281Y0034375
X003033Y0033455
X0029263Y0029949
X0028036Y0031026
X0026775Y003195
X00268Y0019104
X00269Y001675
X0025846Y0016783
X002412Y001804
X002912
X002662Y001304
X0026796Y0009937
X0019746
X002162Y001304
X001662
X001162
X001412Y001804
X001912
Y003804
X0017471Y0038637
X0015321
X001662Y004304
X0015696Y0046312
X0011446Y0048762
X0022646Y0048162
X0028096Y0049387
X0030396Y0045987
X0031096Y0041012
X0031023Y003848
X0028871Y0038437
X002412Y003804
X0022884Y0037802
X0021675Y004115
X0008625Y00397
X0010421Y0045837
T02
X0019575Y0032275
X0020675Y0032475
T03
X000862Y001151
Y001405
Y001659
Y001913
Y002167
Y002421
Y002675
Y002929
X003148
Y002675
Y002421
Y002167
Y001913
Y001659
Y001405
Y001151
T04
X0013378Y0043751
X0018244Y004378
X0021744
X0026412Y0043803
X0029912
X0009878Y0043751
T05
X0019771Y0048772
M30
