G04*
G04 #@! TF.GenerationSoftware,Altium Limited,Altium Designer,24.0.1 (36)*
G04*
G04 Layer_Color=8421504*
%FSLAX43Y43*%
%MOMM*%
G71*
G04*
G04 #@! TF.SameCoordinates,2C614A2D-1525-484C-BEF9-AF12351BE775*
G04*
G04*
G04 #@! TF.FilePolarity,Positive*
G04*
G01*
G75*
%ADD10C,0.250*%
%ADD13C,0.200*%
%ADD16C,0.500*%
%ADD17C,0.254*%
%ADD18R,0.650X0.650*%
%ADD19R,0.239X0.931*%
%ADD20R,0.025X0.025*%
%ADD21R,1.500X1.300*%
%ADD22R,0.650X0.650*%
%ADD23R,2.200X4.300*%
%ADD24R,0.931X0.239*%
G36*
X12600Y35557D02*
Y36664D01*
X11493D01*
Y35557D01*
X12600D01*
D02*
G37*
G36*
X26166Y35544D02*
Y36651D01*
X25059D01*
Y35544D01*
X26166D01*
D02*
G37*
D10*
X4989Y48010D02*
G03*
X6989Y48010I1000J0D01*
G01*
Y42910D02*
G03*
X4989Y42910I-1000J0D01*
G01*
X5009Y13669D02*
G03*
X7009Y13669I1000J0D01*
G01*
Y8569D02*
G03*
X5009Y8569I-1000J0D01*
G01*
X35286Y11048D02*
G03*
X33286Y11048I-1000J0D01*
G01*
Y16148D02*
G03*
X35286Y16148I1000J0D01*
G01*
X35190Y42357D02*
G03*
X33190Y42357I-1000J0D01*
G01*
Y47457D02*
G03*
X35190Y47457I1000J0D01*
G01*
D13*
X35200Y11050D02*
X35289Y10961D01*
X4953Y8551D02*
X4995Y8509D01*
X5000Y48050D02*
Y52825D01*
Y52825D02*
X35206Y52825D01*
X4984Y43000D02*
X4984Y13729D01*
X35258Y16017D02*
Y42310D01*
X35206Y47475D02*
Y52825D01*
X4995Y5000D02*
X35289D01*
X4995D02*
X4995Y8509D01*
X35289Y10961D02*
X35289Y5000D01*
D16*
X9830Y51143D02*
G03*
X7083Y48670I-355J-2368D01*
G01*
X32371Y50416D02*
G03*
X30741Y51092I-1631J-1631D01*
G01*
X33027Y48834D02*
G03*
X32371Y50416I-2237J0D01*
G01*
X9836Y51155D02*
X30664Y51155D01*
X33027Y48834D02*
X33027Y10127D01*
X30325Y7425D02*
X33027Y10127D01*
X7089Y48682D02*
X7089Y7425D01*
X30325D01*
D17*
X0Y-44D02*
X40174D01*
X0Y57850D02*
X40174D01*
Y-44D02*
Y57850D01*
X0Y-44D02*
Y57850D01*
D18*
X13575Y30075D02*
D03*
X27525Y37850D02*
D03*
X13575Y30975D02*
D03*
X27525Y38750D02*
D03*
D19*
X11797Y37601D02*
D03*
X25363Y37588D02*
D03*
X26363D02*
D03*
X25863D02*
D03*
X24863D02*
D03*
Y34607D02*
D03*
X25363D02*
D03*
X25863D02*
D03*
X26363D02*
D03*
X12297Y37601D02*
D03*
X11297D02*
D03*
Y34620D02*
D03*
X11797D02*
D03*
X12297D02*
D03*
X12797D02*
D03*
Y37601D02*
D03*
D20*
X12047Y36111D02*
D03*
X25613Y36097D02*
D03*
D21*
X17400Y36700D02*
D03*
X15441Y36715D02*
D03*
X29102Y36631D02*
D03*
X30934Y36645D02*
D03*
X29102Y38531D02*
D03*
X17400Y38600D02*
D03*
X15441Y38615D02*
D03*
X30934Y38545D02*
D03*
D22*
X12902Y38866D02*
D03*
X28378Y33176D02*
D03*
X13802Y38866D02*
D03*
X27478Y33176D02*
D03*
D23*
X20051Y22129D02*
D03*
Y30929D02*
D03*
D24*
X27103Y35347D02*
D03*
Y35847D02*
D03*
Y36347D02*
D03*
Y36847D02*
D03*
X24122D02*
D03*
Y36347D02*
D03*
Y35347D02*
D03*
Y35847D02*
D03*
X10556Y35861D02*
D03*
X13537Y36361D02*
D03*
Y35361D02*
D03*
Y36861D02*
D03*
X10556D02*
D03*
Y36361D02*
D03*
Y35361D02*
D03*
X13537Y35861D02*
D03*
M02*
