G04*
G04 #@! TF.GenerationSoftware,Altium Limited,Altium Designer,25.6.2 (33)*
G04*
G04 Layer_Color=16711935*
%FSLAX43Y43*%
%MOMM*%
G71*
G04*
G04 #@! TF.SameCoordinates,E44AA5C3-C564-4ECB-96BF-9DEC15B88942*
G04*
G04*
G04 #@! TF.FilePolarity,Negative*
G04*
G01*
G75*
%ADD23R,0.800X0.800*%
%ADD25R,1.703X1.503*%
%ADD26R,0.800X0.800*%
%ADD27C,3.000*%
%ADD28C,1.854*%
G04:AMPARAMS|DCode=29|XSize=2.153mm|YSize=2.153mm|CornerRadius=0.589mm|HoleSize=0mm|Usage=FLASHONLY|Rotation=180.000|XOffset=0mm|YOffset=0mm|HoleType=Round|Shape=RoundedRectangle|*
%AMROUNDEDRECTD29*
21,1,2.153,0.975,0,0,180.0*
21,1,0.975,2.153,0,0,180.0*
1,1,1.178,-0.488,0.488*
1,1,1.178,0.488,0.488*
1,1,1.178,0.488,-0.488*
1,1,1.178,-0.488,-0.488*
%
%ADD29ROUNDEDRECTD29*%
%ADD30C,0.203*%
%ADD31C,1.703*%
%ADD32R,1.854X1.854*%
%ADD33C,2.153*%
%ADD34C,0.803*%
%ADD35C,1.803*%
%ADD36C,1.003*%
D23*
X11359Y35183D02*
D03*
X13914Y31321D02*
D03*
X26770Y31010D02*
D03*
X24981Y36172D02*
D03*
X30352Y34364D02*
D03*
Y33464D02*
D03*
X13514Y26150D02*
D03*
Y27050D02*
D03*
X13529Y24012D02*
D03*
Y24912D02*
D03*
X24981Y35272D02*
D03*
X28005Y31027D02*
D03*
X15950Y32650D02*
D03*
X12843Y31355D02*
D03*
X11359Y36083D02*
D03*
X13914Y32221D02*
D03*
X12843Y32255D02*
D03*
X28005Y31927D02*
D03*
X26770Y31910D02*
D03*
X15950Y33550D02*
D03*
D25*
X15435Y36716D02*
D03*
X17434Y36744D02*
D03*
X28889Y36529D02*
D03*
X31023Y36580D02*
D03*
X15435Y38616D02*
D03*
X17434Y38644D02*
D03*
X28889Y38429D02*
D03*
X31023Y38480D02*
D03*
D26*
X9500Y31075D02*
D03*
X9629Y35107D02*
D03*
X8711Y38786D02*
D03*
X26175Y34350D02*
D03*
X22837Y36312D02*
D03*
X21992Y38938D02*
D03*
X27075Y34350D02*
D03*
X21933Y35189D02*
D03*
X22833D02*
D03*
X21937Y36312D02*
D03*
X22892Y38938D02*
D03*
X22879Y37817D02*
D03*
X21979D02*
D03*
X26800Y19104D02*
D03*
X25900D02*
D03*
X25900Y16750D02*
D03*
X12622Y37697D02*
D03*
X9605Y36238D02*
D03*
X8724Y37710D02*
D03*
X8705Y36238D02*
D03*
X9624Y37710D02*
D03*
X9611Y38786D02*
D03*
X8600Y31075D02*
D03*
X8729Y35107D02*
D03*
X13522Y37697D02*
D03*
X26800Y16750D02*
D03*
D27*
X3035Y45551D02*
D03*
X3029Y11256D02*
D03*
X37193Y45030D02*
D03*
D28*
X8620Y11510D02*
D03*
X31480D02*
D03*
X8620Y26750D02*
D03*
Y24210D02*
D03*
Y16590D02*
D03*
Y19130D02*
D03*
Y14050D02*
D03*
Y21670D02*
D03*
X31480D02*
D03*
Y24210D02*
D03*
Y14050D02*
D03*
Y19130D02*
D03*
Y26750D02*
D03*
Y16590D02*
D03*
Y29290D02*
D03*
D29*
X21744Y43780D02*
D03*
X13378Y43751D02*
D03*
X29912Y43803D02*
D03*
D30*
X6989Y44960D02*
D03*
Y43960D02*
D03*
Y42960D02*
D03*
Y46960D02*
D03*
Y45960D02*
D03*
Y47960D02*
D03*
X7009Y10619D02*
D03*
Y9619D02*
D03*
Y8619D02*
D03*
Y12619D02*
D03*
Y11619D02*
D03*
Y13619D02*
D03*
X33286Y14098D02*
D03*
Y15098D02*
D03*
Y16098D02*
D03*
Y12098D02*
D03*
Y13098D02*
D03*
Y11098D02*
D03*
X33190Y45407D02*
D03*
Y46407D02*
D03*
Y47407D02*
D03*
Y43407D02*
D03*
Y44407D02*
D03*
Y42407D02*
D03*
D31*
X2475Y55350D02*
D03*
X37750D02*
D03*
X2475Y2450D02*
D03*
X37750D02*
D03*
D32*
X8620Y29290D02*
D03*
D33*
X9878Y43751D02*
D03*
X26412Y43803D02*
D03*
X18244Y43780D02*
D03*
D34*
X21050Y27150D02*
D03*
X31096Y41012D02*
D03*
X15696Y46312D02*
D03*
X11171Y9437D02*
D03*
X26796Y9937D02*
D03*
X19746D02*
D03*
X30396Y45987D02*
D03*
X10421Y45837D02*
D03*
X22646Y48162D02*
D03*
X28096Y49387D02*
D03*
X11446Y48762D02*
D03*
X31023Y38480D02*
D03*
X28871Y38437D02*
D03*
X17471Y38637D02*
D03*
X15321D02*
D03*
X19120Y38040D02*
D03*
X24120D02*
D03*
X29120Y18040D02*
D03*
X26620Y13040D02*
D03*
X24120Y18040D02*
D03*
X21620Y13040D02*
D03*
X16620Y43040D02*
D03*
Y23040D02*
D03*
X19120Y18040D02*
D03*
X16620Y13040D02*
D03*
X11620Y23040D02*
D03*
X14120Y18040D02*
D03*
X11620Y13040D02*
D03*
X8550Y34100D02*
D03*
X9600Y25500D02*
D03*
X12400Y35950D02*
D03*
X26050Y36400D02*
D03*
X27238Y37702D02*
D03*
X13570Y30094D02*
D03*
X9112Y32363D02*
D03*
X22200Y32500D02*
D03*
X24350Y27750D02*
D03*
X17303Y27483D02*
D03*
X23950Y23950D02*
D03*
X21675Y41150D02*
D03*
X8625Y39700D02*
D03*
X21050Y22475D02*
D03*
X15950Y32668D02*
D03*
X11274Y26234D02*
D03*
X23421Y28462D02*
D03*
X15103Y27248D02*
D03*
X30330Y33455D02*
D03*
X28036Y31026D02*
D03*
X25846Y16783D02*
D03*
X8700Y37700D02*
D03*
X11289Y24837D02*
D03*
X11000Y28150D02*
D03*
X29263Y29949D02*
D03*
X21932Y36378D02*
D03*
X14265Y33389D02*
D03*
X13519Y34281D02*
D03*
X13597Y37677D02*
D03*
X11040Y29305D02*
D03*
X24570Y26137D02*
D03*
X22884Y37802D02*
D03*
X9624Y37710D02*
D03*
X27085Y34350D02*
D03*
X28100Y34375D02*
D03*
X26800Y19104D02*
D03*
X12843Y32255D02*
D03*
X26900Y16750D02*
D03*
X8705Y36238D02*
D03*
X26775Y31950D02*
D03*
D35*
X19771Y48772D02*
D03*
D36*
X19575Y32275D02*
D03*
X20675Y32475D02*
D03*
M02*
