G04*
G04 #@! TF.GenerationSoftware,Altium Limited,Altium Designer,25.6.2 (33)*
G04*
G04 Layer_Color=128*
%FSLAX43Y43*%
%MOMM*%
G71*
G04*
G04 #@! TF.SameCoordinates,E44AA5C3-C564-4ECB-96BF-9DEC15B88942*
G04*
G04*
G04 #@! TF.FilePolarity,Positive*
G04*
G01*
G75*
%ADD16R,0.650X0.650*%
%ADD19R,1.500X1.300*%
%ADD20R,0.650X0.650*%
D16*
X11359Y35183D02*
D03*
X13914Y31321D02*
D03*
X26770Y31010D02*
D03*
X24981Y36172D02*
D03*
X30352Y34364D02*
D03*
Y33464D02*
D03*
X13514Y26150D02*
D03*
Y27050D02*
D03*
X13529Y24012D02*
D03*
Y24912D02*
D03*
X24981Y35272D02*
D03*
X28005Y31027D02*
D03*
X15950Y32650D02*
D03*
X12843Y31355D02*
D03*
X11359Y36083D02*
D03*
X13914Y32221D02*
D03*
X12843Y32255D02*
D03*
X28005Y31927D02*
D03*
X26770Y31910D02*
D03*
X15950Y33550D02*
D03*
D19*
X15435Y36716D02*
D03*
X17434Y36744D02*
D03*
X28889Y36529D02*
D03*
X31023Y36580D02*
D03*
X15435Y38616D02*
D03*
X17434Y38644D02*
D03*
X28889Y38429D02*
D03*
X31023Y38480D02*
D03*
D20*
X9500Y31075D02*
D03*
X9629Y35107D02*
D03*
X8711Y38786D02*
D03*
X26175Y34350D02*
D03*
X22837Y36312D02*
D03*
X21992Y38938D02*
D03*
X27075Y34350D02*
D03*
X21933Y35189D02*
D03*
X22833D02*
D03*
X21937Y36312D02*
D03*
X22892Y38938D02*
D03*
X22879Y37817D02*
D03*
X21979D02*
D03*
X26800Y19104D02*
D03*
X25900D02*
D03*
X25900Y16750D02*
D03*
X12622Y37697D02*
D03*
X9605Y36238D02*
D03*
X8724Y37710D02*
D03*
X8705Y36238D02*
D03*
X9624Y37710D02*
D03*
X9611Y38786D02*
D03*
X8600Y31075D02*
D03*
X8729Y35107D02*
D03*
X13522Y37697D02*
D03*
X26800Y16750D02*
D03*
M02*
