G04*
G04 #@! TF.GenerationSoftware,Altium Limited,Altium Designer,25.6.2 (33)*
G04*
G04 Layer_Physical_Order=1*
G04 Layer_Color=65280*
%FSLAX43Y43*%
%MOMM*%
G71*
G04*
G04 #@! TF.SameCoordinates,E44AA5C3-C564-4ECB-96BF-9DEC15B88942*
G04*
G04*
G04 #@! TF.FilePolarity,Positive*
G04*
G01*
G75*
%ADD13C,0.200*%
%ADD16R,0.650X0.650*%
%ADD17R,0.239X0.931*%
%ADD19R,1.500X1.300*%
%ADD20R,0.650X0.650*%
%ADD21R,2.200X4.300*%
%ADD22R,0.931X0.239*%
%ADD24R,1.750X1.750*%
%ADD37C,1.000*%
%ADD38C,1.651*%
G04:AMPARAMS|DCode=39|XSize=1.95mm|YSize=1.95mm|CornerRadius=0.488mm|HoleSize=0mm|Usage=FLASHONLY|Rotation=180.000|XOffset=0mm|YOffset=0mm|HoleType=Round|Shape=RoundedRectangle|*
%AMROUNDEDRECTD39*
21,1,1.950,0.975,0,0,180.0*
21,1,0.975,1.950,0,0,180.0*
1,1,0.975,-0.488,0.488*
1,1,0.975,0.488,0.488*
1,1,0.975,0.488,-0.488*
1,1,0.975,-0.488,-0.488*
%
%ADD39ROUNDEDRECTD39*%
%ADD40C,1.500*%
%ADD41R,1.651X1.651*%
%ADD42C,1.950*%
%ADD43C,0.600*%
%ADD44C,1.600*%
%ADD45C,0.800*%
G36*
X31137Y50791D02*
X31556Y50618D01*
X31934Y50365D01*
X32251Y50049D01*
X32495Y49682D01*
X32664Y49275D01*
X32750Y48843D01*
Y48623D01*
X32750D01*
X32750Y48623D01*
Y47521D01*
X32740Y47496D01*
Y47317D01*
X32750Y47292D01*
Y46521D01*
X32740Y46496D01*
Y46317D01*
X32750Y46292D01*
Y45521D01*
X32740Y45496D01*
Y45317D01*
X32750Y45292D01*
Y44521D01*
X32740Y44496D01*
Y44317D01*
X32750Y44292D01*
Y43521D01*
X32740Y43496D01*
Y43317D01*
X32750Y43292D01*
Y42521D01*
X32740Y42496D01*
Y42317D01*
X32750Y42292D01*
Y11698D01*
X32600Y11679D01*
X32529Y11944D01*
X32381Y12201D01*
X32171Y12411D01*
X31914Y12559D01*
X31630Y12635D01*
Y11510D01*
Y10385D01*
X31914Y10461D01*
X32171Y10609D01*
X32381Y10819D01*
X32529Y11076D01*
X32600Y11341D01*
X32750Y11322D01*
Y10240D01*
X30210Y7700D01*
X7350D01*
Y8323D01*
X7391Y8364D01*
X7459Y8529D01*
Y8708D01*
X7391Y8874D01*
X7350Y8915D01*
Y9323D01*
X7391Y9364D01*
X7459Y9529D01*
Y9708D01*
X7391Y9874D01*
X7350Y9915D01*
Y10323D01*
X7391Y10364D01*
X7459Y10529D01*
Y10708D01*
X7391Y10874D01*
X7350Y10915D01*
Y11207D01*
X7375Y11228D01*
X7545Y11175D01*
X7571Y11076D01*
X7719Y10819D01*
X7929Y10609D01*
X8186Y10461D01*
X8470Y10385D01*
Y11510D01*
Y12635D01*
X8186Y12559D01*
X7929Y12411D01*
X7719Y12201D01*
X7588Y11973D01*
X7484Y11940D01*
X7414Y11936D01*
X7350Y11997D01*
Y12323D01*
X7391Y12364D01*
X7459Y12529D01*
Y12708D01*
X7391Y12874D01*
X7350Y12915D01*
Y13323D01*
X7391Y13364D01*
X7459Y13529D01*
Y13708D01*
X7391Y13874D01*
X7350Y13915D01*
X7350Y42684D01*
X7371Y42705D01*
X7439Y42870D01*
Y43049D01*
X7371Y43215D01*
X7350Y43236D01*
Y43684D01*
X7371Y43705D01*
X7439Y43870D01*
Y44049D01*
X7371Y44215D01*
X7350Y44236D01*
Y44684D01*
X7371Y44705D01*
X7439Y44870D01*
Y45049D01*
X7371Y45215D01*
X7350Y45236D01*
Y45684D01*
X7371Y45705D01*
X7439Y45870D01*
Y46049D01*
X7371Y46215D01*
X7350Y46236D01*
Y46684D01*
X7371Y46705D01*
X7439Y46870D01*
Y47049D01*
X7371Y47215D01*
X7350Y47236D01*
Y47684D01*
X7371Y47705D01*
X7439Y47870D01*
Y48049D01*
X7371Y48215D01*
X7350Y48236D01*
Y49111D01*
X7416Y49441D01*
X7544Y49752D01*
X7731Y50031D01*
X8024Y50324D01*
X8432Y50596D01*
X8885Y50784D01*
X9367Y50880D01*
X9612D01*
X9612Y50880D01*
X30464D01*
X30691Y50880D01*
X31137Y50791D01*
D02*
G37*
%LPC*%
G36*
X22232Y45062D02*
X21894D01*
Y43930D01*
X23026D01*
Y44268D01*
X22999Y44474D01*
X22920Y44665D01*
X22793Y44830D01*
X22629Y44956D01*
X22437Y45035D01*
X22232Y45062D01*
D02*
G37*
G36*
X21594D02*
X21257D01*
X21051Y45035D01*
X20859Y44956D01*
X20695Y44830D01*
X20569Y44665D01*
X20489Y44474D01*
X20462Y44268D01*
Y43930D01*
X21594D01*
Y45062D01*
D02*
G37*
G36*
X18392Y44905D02*
X18096D01*
X17810Y44829D01*
X17553Y44681D01*
X17344Y44471D01*
X17196Y44215D01*
X17119Y43929D01*
Y43632D01*
X17196Y43346D01*
X17344Y43090D01*
X17553Y42880D01*
X17810Y42732D01*
X18096Y42655D01*
X18392D01*
X18678Y42732D01*
X18935Y42880D01*
X19144Y43090D01*
X19292Y43346D01*
X19369Y43632D01*
Y43929D01*
X19292Y44215D01*
X19144Y44471D01*
X18935Y44681D01*
X18678Y44829D01*
X18392Y44905D01*
D02*
G37*
G36*
X23026Y43630D02*
X21894D01*
Y42499D01*
X22232D01*
X22437Y42526D01*
X22629Y42605D01*
X22793Y42731D01*
X22920Y42896D01*
X22999Y43087D01*
X23026Y43293D01*
Y43630D01*
D02*
G37*
G36*
X21594D02*
X20462D01*
Y43293D01*
X20489Y43087D01*
X20569Y42896D01*
X20695Y42731D01*
X20859Y42605D01*
X21051Y42526D01*
X21257Y42499D01*
X21594D01*
Y43630D01*
D02*
G37*
G36*
X26065Y45802D02*
X26024Y45785D01*
X25980Y45778D01*
X25968Y45762D01*
X25950Y45754D01*
X24635Y44440D01*
X24588Y44325D01*
Y38203D01*
X24593Y38190D01*
Y37122D01*
X24588D01*
Y37117D01*
X23725D01*
X23315Y37527D01*
X23309Y37543D01*
X23294Y37559D01*
X23288Y37567D01*
X23285Y37572D01*
X23291Y37584D01*
X23293Y37614D01*
X23334Y37712D01*
Y37891D01*
X23265Y38057D01*
X23138Y38183D01*
X22973Y38252D01*
X22794D01*
X22629Y38183D01*
X22502Y38057D01*
X22434Y37891D01*
Y37712D01*
X22502Y37547D01*
X22629Y37420D01*
X22661Y37407D01*
X22676Y37388D01*
X22677Y37388D01*
X22678Y37388D01*
X22697Y37378D01*
X22711Y37370D01*
X22765Y37334D01*
X22777Y37325D01*
X22831Y37278D01*
X22848Y37262D01*
X22865Y37255D01*
X22876Y37240D01*
X22881Y37239D01*
X23369Y36752D01*
X23306Y36602D01*
X22434D01*
X22422Y36609D01*
X22416Y36607D01*
X22411Y36609D01*
X22390Y36610D01*
X22377Y36612D01*
X22366Y36615D01*
X22355Y36618D01*
X22346Y36622D01*
X22336Y36628D01*
X22326Y36634D01*
X22316Y36643D01*
X22305Y36653D01*
X22290Y36671D01*
X22262Y36685D01*
X22187Y36760D01*
X22022Y36828D01*
X21843D01*
X21677Y36760D01*
X21551Y36633D01*
X21482Y36468D01*
Y36289D01*
X21551Y36123D01*
X21677Y35997D01*
X21843Y35928D01*
X22022D01*
X22187Y35997D01*
X22205Y36014D01*
X22224Y36019D01*
X22244Y36035D01*
X22261Y36047D01*
X22277Y36056D01*
X22292Y36064D01*
X22307Y36071D01*
X22322Y36076D01*
X22337Y36080D01*
X22352Y36083D01*
X22367Y36084D01*
X22388Y36085D01*
X22404Y36092D01*
X23346D01*
X23408Y35942D01*
X23333Y35868D01*
X23325Y35850D01*
X23226Y35751D01*
X23171Y35668D01*
X23152Y35570D01*
Y28942D01*
X23144Y28926D01*
X23143Y28904D01*
X23142Y28890D01*
X23139Y28876D01*
X23135Y28862D01*
X23130Y28849D01*
X23124Y28835D01*
X23116Y28821D01*
X23106Y28807D01*
X23095Y28792D01*
X23078Y28773D01*
X23070Y28748D01*
X23039Y28717D01*
X22971Y28552D01*
Y28373D01*
X23039Y28207D01*
X23166Y28081D01*
X23331Y28012D01*
X23510D01*
X23676Y28081D01*
X23802Y28207D01*
X23871Y28373D01*
Y28552D01*
X23802Y28717D01*
X23746Y28774D01*
X23733Y28804D01*
X23715Y28820D01*
X23704Y28832D01*
X23695Y28844D01*
X23688Y28855D01*
X23682Y28867D01*
X23678Y28878D01*
X23674Y28889D01*
X23671Y28902D01*
X23670Y28915D01*
X23669Y28936D01*
X23668Y28937D01*
X23669Y28938D01*
X23661Y28953D01*
Y35078D01*
X24588D01*
Y35072D01*
X24593D01*
Y33991D01*
X25127D01*
X25128Y33975D01*
X25129Y33942D01*
X25136Y33925D01*
Y26338D01*
X24986Y26308D01*
X24952Y26392D01*
X24825Y26518D01*
X24660Y26587D01*
X24481D01*
X24315Y26518D01*
X24189Y26392D01*
X24177Y26363D01*
X24160Y26349D01*
X24150Y26333D01*
X24146Y26326D01*
X24141Y26321D01*
X24138Y26318D01*
X24134Y26315D01*
X24129Y26313D01*
X24124Y26311D01*
X24115Y26309D01*
X24104Y26307D01*
X24083Y26306D01*
X24067Y26299D01*
X13762D01*
X12548Y27513D01*
Y31727D01*
X12698Y31828D01*
X12753Y31805D01*
X12932D01*
X13098Y31873D01*
X13114Y31889D01*
X13264Y31827D01*
Y31518D01*
X13256Y31501D01*
X13256Y31468D01*
X13254Y31450D01*
X13100D01*
Y30500D01*
Y30150D01*
X13575D01*
X14050D01*
Y30500D01*
Y31450D01*
X13784D01*
X13782Y31468D01*
X13781Y31501D01*
X13774Y31518D01*
Y33036D01*
X13924Y33094D01*
X14010Y33008D01*
X14175Y32939D01*
X14354D01*
X14519Y33008D01*
X14646Y33134D01*
X14715Y33300D01*
Y33479D01*
X14646Y33644D01*
X14603Y33687D01*
X14592Y33715D01*
X14575Y33733D01*
X14564Y33747D01*
X14555Y33760D01*
X14547Y33773D01*
X14541Y33785D01*
X14536Y33797D01*
X14532Y33810D01*
X14529Y33823D01*
X14528Y33837D01*
X14527Y33858D01*
X14519Y33874D01*
Y35261D01*
X14658Y35318D01*
X14867Y35109D01*
Y27742D01*
X14860Y27727D01*
X14860Y27725D01*
X14859Y27723D01*
X14858Y27702D01*
X14857Y27689D01*
X14854Y27677D01*
X14851Y27665D01*
X14846Y27655D01*
X14840Y27644D01*
X14833Y27633D01*
X14824Y27621D01*
X14813Y27609D01*
X14796Y27593D01*
X14782Y27563D01*
X14722Y27503D01*
X14653Y27337D01*
Y27158D01*
X14722Y26993D01*
X14848Y26867D01*
X15014Y26798D01*
X15193D01*
X15358Y26867D01*
X15485Y26993D01*
X15553Y27158D01*
Y27337D01*
X15485Y27503D01*
X15457Y27530D01*
X15450Y27554D01*
X15433Y27574D01*
X15422Y27589D01*
X15412Y27604D01*
X15404Y27618D01*
X15398Y27632D01*
X15393Y27646D01*
X15389Y27660D01*
X15386Y27674D01*
X15385Y27689D01*
X15384Y27710D01*
X15376Y27726D01*
Y32485D01*
X15526Y32515D01*
X15568Y32413D01*
X15695Y32287D01*
X15860Y32218D01*
X16039D01*
X16205Y32287D01*
X16331Y32413D01*
X16400Y32579D01*
Y32758D01*
X16331Y32923D01*
X16205Y33050D01*
X16039Y33118D01*
X15860D01*
X15695Y33050D01*
X15568Y32923D01*
X15526Y32822D01*
X15376Y32852D01*
Y35215D01*
X15357Y35313D01*
X15302Y35395D01*
X14921Y35776D01*
X14978Y35915D01*
X15366D01*
Y36640D01*
X14541D01*
Y36352D01*
X14402Y36295D01*
X14334Y36363D01*
X14326Y36381D01*
X14153Y36554D01*
Y37130D01*
X13987D01*
X13948Y37154D01*
X13921Y37177D01*
X13915Y37184D01*
X13905Y37198D01*
X13868Y37269D01*
X13873Y37281D01*
X13879Y37294D01*
X13887Y37307D01*
X13896Y37320D01*
X13907Y37333D01*
X13924Y37351D01*
X13935Y37380D01*
X13978Y37423D01*
X14047Y37588D01*
Y37767D01*
X13978Y37932D01*
X13852Y38059D01*
X13724Y38112D01*
X13709Y38144D01*
X13684Y38287D01*
X13709Y38312D01*
X13753Y38352D01*
X13786Y38380D01*
X13795Y38387D01*
X13800Y38389D01*
X13801Y38390D01*
X13801Y38390D01*
X13802Y38391D01*
X14277D01*
Y38601D01*
X14295Y38603D01*
X14328Y38604D01*
X14344Y38611D01*
X14473D01*
X14490Y38604D01*
X14523Y38603D01*
X14541Y38601D01*
Y37815D01*
X16341D01*
Y39415D01*
X14541D01*
Y39131D01*
X14523Y39129D01*
X14490Y39128D01*
X14473Y39121D01*
X14344D01*
X14328Y39128D01*
X14295Y39129D01*
X14277Y39131D01*
Y39341D01*
X12977D01*
Y38866D01*
X12827D01*
Y39341D01*
X12708D01*
X12645Y39491D01*
X14940Y41785D01*
X14987Y41900D01*
Y44878D01*
X14966Y44930D01*
X14950Y44982D01*
X14637Y45358D01*
X14633Y45360D01*
X14631Y45365D01*
X14578Y45389D01*
X14527Y45416D01*
X14522Y45414D01*
X14518Y45416D01*
X12064Y45504D01*
X12062Y45503D01*
X12061Y45504D01*
X12004Y45482D01*
X11947Y45461D01*
X11947Y45459D01*
X11945Y45459D01*
X11837Y45354D01*
X11837Y45353D01*
X11835Y45352D01*
X11812Y45296D01*
X11788Y45240D01*
X11788Y45239D01*
X11788Y45238D01*
Y44278D01*
X11810Y44226D01*
X11828Y44171D01*
X11833Y44169D01*
X11835Y44164D01*
X11888Y44142D01*
X11939Y44116D01*
X12089Y44107D01*
X12090Y44107D01*
X12204Y44045D01*
X12240Y43997D01*
Y43505D01*
X12204Y43457D01*
X12090Y43395D01*
X12089Y43396D01*
X11939Y43386D01*
X11888Y43360D01*
X11835Y43339D01*
X11833Y43333D01*
X11828Y43331D01*
X11810Y43277D01*
X11788Y43224D01*
X11788Y38859D01*
X11794Y38843D01*
X11791Y38827D01*
X11815Y38791D01*
X11820Y38765D01*
X11858Y38709D01*
X11862Y38685D01*
X11873Y38669D01*
X11889Y38587D01*
Y38282D01*
X11851Y38264D01*
X11897D01*
X11897Y38226D01*
X11907Y38072D01*
X11910Y38066D01*
X11913Y38064D01*
X11680D01*
X11683Y38066D01*
X11686Y38072D01*
X11689Y38082D01*
X11691Y38096D01*
X11694Y38136D01*
X11696Y38217D01*
X11569D01*
Y43818D01*
Y44625D01*
X11548Y44678D01*
X11529Y44732D01*
X10872Y45482D01*
X10870Y45483D01*
X10869Y45485D01*
X10814Y45510D01*
X10761Y45537D01*
X10758Y45536D01*
X10756Y45537D01*
X10429Y45549D01*
X10426Y45548D01*
X10423Y45549D01*
X10336D01*
X10328Y45553D01*
X9037Y45601D01*
X9020Y45595D01*
X9002Y45598D01*
X8964Y45574D01*
X8920Y45558D01*
X8913Y45541D01*
X8898Y45532D01*
X8199Y44530D01*
X8187Y44472D01*
X8172Y44415D01*
X8292Y43562D01*
X8305Y43541D01*
X8299Y43517D01*
X8639Y41102D01*
X8665Y41058D01*
X8685Y41010D01*
X10288Y39408D01*
X10288Y37875D01*
X10335Y37760D01*
X10774Y37322D01*
X10804Y37309D01*
X10826Y37287D01*
X10841Y37137D01*
X10839Y37130D01*
X10553D01*
X10534Y37139D01*
X10514Y37140D01*
X10501Y37142D01*
X10488Y37146D01*
X10473Y37151D01*
X10457Y37158D01*
X10440Y37167D01*
X10421Y37180D01*
X10401Y37195D01*
X10380Y37213D01*
X10355Y37236D01*
X10338Y37243D01*
X10119Y37461D01*
X10119Y37462D01*
X10114Y37467D01*
X10102Y37478D01*
X10096Y37495D01*
X10082Y37510D01*
X10075Y37519D01*
X10070Y37527D01*
X10067Y37534D01*
X10065Y37540D01*
X10064Y37545D01*
X10064Y37552D01*
X10064Y37560D01*
X10065Y37570D01*
X10070Y37589D01*
X10067Y37605D01*
X10074Y37620D01*
Y37799D01*
X10005Y37965D01*
X9878Y38091D01*
X9713Y38160D01*
X9534D01*
X9369Y38091D01*
X9242Y37965D01*
X9241Y37962D01*
X9081Y37955D01*
X8955Y38081D01*
X8790Y38150D01*
X8610D01*
X8445Y38081D01*
X8319Y37955D01*
X8250Y37790D01*
Y37610D01*
X8319Y37445D01*
X8445Y37319D01*
X8610Y37250D01*
X8790D01*
X8955Y37319D01*
X9081Y37445D01*
X9083Y37448D01*
X9242Y37455D01*
X9369Y37328D01*
X9477Y37284D01*
X9501Y37264D01*
X9528Y37256D01*
X9548Y37250D01*
X9591Y37231D01*
X9607Y37223D01*
X9623Y37214D01*
X9639Y37204D01*
X9653Y37193D01*
X9666Y37182D01*
X9682Y37167D01*
X9699Y37161D01*
X9838Y37022D01*
X9845Y37004D01*
X9892Y36957D01*
X9941Y36906D01*
Y36624D01*
X9926Y36623D01*
X9893Y36623D01*
X9875Y36615D01*
X9181D01*
X9166Y36623D01*
X9055Y36628D01*
X9028Y36630D01*
X8969Y36640D01*
X8946Y36645D01*
X8896Y36660D01*
X8873Y36669D01*
X8844Y36668D01*
X8794Y36688D01*
X8615D01*
X8450Y36620D01*
X8323Y36493D01*
X8255Y36328D01*
Y36149D01*
X8323Y35983D01*
X8450Y35857D01*
X8615Y35788D01*
X8794D01*
X8960Y35857D01*
X9086Y35983D01*
X9113Y36048D01*
X9135Y36069D01*
X9142Y36085D01*
X9144Y36089D01*
X9146Y36091D01*
X9146Y36091D01*
X9147Y36092D01*
X9148Y36093D01*
X9152Y36094D01*
X9159Y36096D01*
X9170Y36097D01*
X9191Y36098D01*
X9197Y36101D01*
X9204Y36100D01*
X9215Y36106D01*
X9724D01*
X9787Y35956D01*
X9620Y35789D01*
X9565Y35706D01*
X9545Y35609D01*
Y30265D01*
X7644D01*
Y28315D01*
X9545D01*
Y28036D01*
X9389Y27879D01*
X9375Y27875D01*
X9343Y27849D01*
X9312Y27830D01*
X9268Y27810D01*
X9211Y27792D01*
X9142Y27775D01*
X9066Y27762D01*
X8751Y27738D01*
X8628Y27738D01*
X8598Y27726D01*
X8492D01*
X8243Y27659D01*
X8021Y27531D01*
X7839Y27349D01*
X7711Y27127D01*
X7644Y26878D01*
Y26622D01*
X7711Y26373D01*
X7839Y26151D01*
X8021Y25969D01*
X8243Y25841D01*
X8492Y25774D01*
X8748D01*
X8997Y25841D01*
X9219Y25969D01*
X9401Y26151D01*
X9529Y26373D01*
X9595Y26622D01*
Y26728D01*
X9608Y26758D01*
X9608Y26882D01*
X9620Y27102D01*
X9631Y27192D01*
X9645Y27272D01*
X9661Y27341D01*
X9680Y27398D01*
X9700Y27442D01*
X9719Y27473D01*
X9745Y27505D01*
X9891Y27470D01*
X9895Y27469D01*
Y15686D01*
X9389Y15179D01*
X9375Y15175D01*
X9343Y15149D01*
X9312Y15130D01*
X9268Y15110D01*
X9211Y15092D01*
X9142Y15075D01*
X9066Y15062D01*
X8751Y15038D01*
X8628Y15038D01*
X8598Y15026D01*
X8492D01*
X8243Y14959D01*
X8021Y14831D01*
X7839Y14649D01*
X7711Y14427D01*
X7644Y14178D01*
Y13922D01*
X7711Y13673D01*
X7839Y13451D01*
X8021Y13269D01*
X8243Y13141D01*
X8492Y13075D01*
X8748D01*
X8997Y13141D01*
X9219Y13269D01*
X9401Y13451D01*
X9529Y13673D01*
X9595Y13922D01*
Y14028D01*
X9608Y14058D01*
X9608Y14182D01*
X9620Y14402D01*
X9631Y14492D01*
X9645Y14572D01*
X9661Y14641D01*
X9680Y14698D01*
X9700Y14742D01*
X9719Y14773D01*
X9745Y14805D01*
X9749Y14819D01*
X10330Y15400D01*
X10385Y15482D01*
X10405Y15580D01*
Y28049D01*
X10550Y28060D01*
X10619Y27895D01*
X10745Y27769D01*
X10910Y27700D01*
X11090D01*
X11255Y27769D01*
X11381Y27895D01*
X11450Y28060D01*
Y28240D01*
X11381Y28405D01*
X11255Y28531D01*
X11090Y28600D01*
X10910D01*
X10745Y28531D01*
X10619Y28405D01*
X10550Y28240D01*
X10405Y28251D01*
Y35023D01*
X10412Y35040D01*
X10413Y35073D01*
X10415Y35091D01*
X11022D01*
Y35086D01*
X11027D01*
Y34625D01*
X11022Y34600D01*
Y34430D01*
X11018Y34421D01*
X11017Y34401D01*
X11015Y34388D01*
X11012Y34375D01*
X11007Y34360D01*
X10999Y34344D01*
X10990Y34327D01*
X10978Y34308D01*
X10963Y34288D01*
X10945Y34267D01*
X10921Y34242D01*
X10914Y34225D01*
X10860Y34170D01*
X10805Y34088D01*
X10785Y33990D01*
Y29790D01*
X10778Y29774D01*
X10777Y29753D01*
X10775Y29739D01*
X10773Y29726D01*
X10769Y29713D01*
X10764Y29701D01*
X10758Y29688D01*
X10750Y29676D01*
X10741Y29662D01*
X10730Y29649D01*
X10713Y29631D01*
X10702Y29603D01*
X10659Y29560D01*
X10590Y29394D01*
Y29215D01*
X10659Y29050D01*
X10785Y28923D01*
X10951Y28855D01*
X11130D01*
X11295Y28923D01*
X11422Y29050D01*
X11490Y29215D01*
Y29394D01*
X11422Y29560D01*
X11379Y29603D01*
X11368Y29631D01*
X11351Y29649D01*
X11339Y29662D01*
X11330Y29676D01*
X11322Y29688D01*
X11316Y29701D01*
X11311Y29713D01*
X11308Y29726D01*
X11305Y29739D01*
X11303Y29753D01*
X11302Y29774D01*
X11295Y29790D01*
Y33873D01*
X11358Y33932D01*
X11412Y33976D01*
X11430Y33990D01*
X11443Y33998D01*
X11448Y34000D01*
X11455Y34003D01*
X11457Y34005D01*
X11672D01*
Y27161D01*
X11692Y27063D01*
X11747Y26981D01*
X13321Y25407D01*
X13404Y25351D01*
X13501Y25332D01*
X25136D01*
Y18259D01*
X25156Y18161D01*
X25211Y18079D01*
X25907Y17383D01*
X25845Y17233D01*
X25757D01*
X25591Y17164D01*
X25465Y17038D01*
X25396Y16872D01*
Y16693D01*
X25465Y16528D01*
X25591Y16401D01*
X25757Y16333D01*
X25936D01*
X26101Y16401D01*
X26228Y16528D01*
X26252Y16586D01*
X26435Y16667D01*
X26435Y16667D01*
X26450Y16660D01*
X26519Y16495D01*
X26645Y16369D01*
X26810Y16300D01*
X26990D01*
X27155Y16369D01*
X27281Y16495D01*
X27350Y16660D01*
Y16840D01*
X27281Y17005D01*
X27155Y17131D01*
X26990Y17200D01*
X26929D01*
X26901Y17212D01*
X26876Y17213D01*
X26859Y17215D01*
X26843Y17217D01*
X26828Y17221D01*
X26815Y17225D01*
X26803Y17231D01*
X26791Y17237D01*
X26780Y17244D01*
X26769Y17253D01*
X26754Y17267D01*
X26737Y17273D01*
X25646Y18364D01*
Y19531D01*
X25796Y19593D01*
X26249Y19141D01*
X26255Y19124D01*
X26269Y19109D01*
X26295Y19077D01*
X26305Y19064D01*
X26328Y19026D01*
X26337Y19009D01*
X26359Y18963D01*
X26369Y18938D01*
X26392Y18914D01*
X26419Y18849D01*
X26545Y18723D01*
X26710Y18654D01*
X26890D01*
X27055Y18723D01*
X27181Y18849D01*
X27250Y19015D01*
Y19194D01*
X27181Y19359D01*
X27055Y19486D01*
X26890Y19554D01*
X26710D01*
X26663Y19534D01*
X26636Y19536D01*
X26619Y19530D01*
X26612Y19529D01*
X26608Y19528D01*
X26605Y19529D01*
X26603Y19529D01*
X26600Y19530D01*
X26595Y19532D01*
X26588Y19536D01*
X26580Y19542D01*
X26564Y19557D01*
X26548Y19563D01*
X26118Y19993D01*
Y31915D01*
X26146Y31969D01*
X26174Y31986D01*
X26267Y32012D01*
X26277Y32004D01*
X26313Y31954D01*
X26313Y31949D01*
X26325Y31921D01*
Y31860D01*
X26394Y31695D01*
X26520Y31569D01*
X26685Y31500D01*
X26865D01*
X27030Y31569D01*
X27156Y31695D01*
X27225Y31860D01*
Y32040D01*
X27156Y32205D01*
X27030Y32331D01*
X26865Y32400D01*
X26804D01*
X26776Y32412D01*
X26751Y32413D01*
X26734Y32415D01*
X26718Y32417D01*
X26703Y32421D01*
X26690Y32425D01*
X26678Y32431D01*
X26666Y32437D01*
X26655Y32444D01*
X26644Y32453D01*
X26629Y32467D01*
X26618Y32471D01*
Y33874D01*
X26675Y33928D01*
X26677Y33928D01*
X26703Y33931D01*
X26714Y33930D01*
X26729Y33928D01*
X26737Y33926D01*
X26823Y33880D01*
X26830Y33864D01*
Y33697D01*
X26850Y33599D01*
X26905Y33516D01*
X27003Y33418D01*
Y32701D01*
X28303D01*
Y33176D01*
Y33651D01*
X27479D01*
X27455Y33687D01*
X27340Y33802D01*
Y33864D01*
X27347Y33880D01*
X27348Y33902D01*
X27350Y33915D01*
X27353Y33929D01*
X27356Y33941D01*
X27361Y33954D01*
X27367Y33966D01*
X27375Y33979D01*
X27384Y33992D01*
X27395Y34005D01*
X27412Y34023D01*
X27423Y34052D01*
X27467Y34095D01*
X27517Y34216D01*
X27674Y34229D01*
X27719Y34120D01*
X27845Y33994D01*
X28010Y33925D01*
X28190D01*
X28355Y33994D01*
X28481Y34120D01*
X28550Y34285D01*
Y34465D01*
X28481Y34630D01*
X28438Y34673D01*
X28427Y34701D01*
X28410Y34719D01*
X28399Y34733D01*
X28390Y34746D01*
X28382Y34759D01*
X28376Y34771D01*
X28371Y34783D01*
X28367Y34796D01*
X28365Y34809D01*
X28363Y34823D01*
X28362Y34844D01*
X28355Y34860D01*
Y35069D01*
X28493Y35126D01*
X29008Y34611D01*
Y30434D01*
X29001Y30418D01*
X29000Y30397D01*
X28998Y30383D01*
X28996Y30370D01*
X28992Y30358D01*
X28987Y30345D01*
X28981Y30333D01*
X28973Y30320D01*
X28964Y30307D01*
X28953Y30293D01*
X28936Y30276D01*
X28925Y30247D01*
X28882Y30204D01*
X28813Y30039D01*
Y29860D01*
X28882Y29694D01*
X28925Y29651D01*
X28936Y29623D01*
X28953Y29605D01*
X28964Y29591D01*
X28973Y29578D01*
X28981Y29566D01*
X28987Y29553D01*
X28992Y29541D01*
X28996Y29528D01*
X28998Y29515D01*
X29000Y29501D01*
X29001Y29480D01*
X29008Y29464D01*
Y28585D01*
X29028Y28487D01*
X29083Y28404D01*
X30215Y27272D01*
X30219Y27260D01*
X30224Y27253D01*
X30494Y26581D01*
X30544Y26435D01*
X30544Y26435D01*
X30544Y26434D01*
X30559Y26417D01*
X30571Y26373D01*
X30699Y26151D01*
X30881Y25969D01*
X31103Y25841D01*
X31352Y25774D01*
X31608D01*
X31857Y25841D01*
X32079Y25969D01*
X32261Y26151D01*
X32389Y26373D01*
X32456Y26622D01*
Y26878D01*
X32389Y27127D01*
X32261Y27349D01*
X32079Y27531D01*
X31857Y27659D01*
X31608Y27726D01*
X31352D01*
X31179Y27679D01*
X31151Y27681D01*
X31050Y27648D01*
X30960Y27624D01*
X30879Y27608D01*
X30807Y27600D01*
X30744Y27598D01*
X30690Y27603D01*
X30646Y27613D01*
X30609Y27627D01*
X30579Y27645D01*
X30543Y27675D01*
X30529Y27680D01*
X29518Y28690D01*
Y29464D01*
X29525Y29480D01*
X29526Y29501D01*
X29528Y29515D01*
X29531Y29528D01*
X29534Y29541D01*
X29539Y29553D01*
X29545Y29566D01*
X29553Y29578D01*
X29562Y29591D01*
X29574Y29605D01*
X29591Y29623D01*
X29602Y29651D01*
X29645Y29694D01*
X29713Y29860D01*
Y30039D01*
X29645Y30204D01*
X29602Y30247D01*
X29591Y30276D01*
X29574Y30293D01*
X29562Y30307D01*
X29553Y30320D01*
X29545Y30333D01*
X29539Y30345D01*
X29534Y30358D01*
X29531Y30370D01*
X29528Y30383D01*
X29526Y30397D01*
X29525Y30418D01*
X29518Y30434D01*
Y34717D01*
X29499Y34814D01*
X29443Y34897D01*
X28648Y35693D01*
X28705Y35831D01*
X29027D01*
Y36631D01*
Y37431D01*
X28202D01*
Y36753D01*
X28136Y36714D01*
X28052Y36697D01*
X27900Y36850D01*
X27892Y36868D01*
X27719Y37041D01*
Y37117D01*
X27588D01*
X27565Y37126D01*
X27557Y37123D01*
X27549Y37125D01*
X27533Y37117D01*
X26638D01*
Y37122D01*
X26632D01*
Y37736D01*
X26641Y37752D01*
X26640Y37756D01*
X26641Y37759D01*
X26642Y37780D01*
X26644Y37792D01*
X26648Y37806D01*
X26653Y37820D01*
X26660Y37836D01*
X26669Y37854D01*
X26682Y37872D01*
X26697Y37892D01*
X26715Y37913D01*
X26738Y37938D01*
X26745Y37955D01*
X26911Y38122D01*
X27050Y38065D01*
Y37925D01*
X27525D01*
X28000D01*
Y38339D01*
X28101Y38397D01*
X28202Y38339D01*
Y37731D01*
X29890D01*
X30002Y37731D01*
X30147Y37745D01*
X31834D01*
Y39345D01*
X30147D01*
X30034Y39345D01*
X29890Y39331D01*
X28202D01*
Y39161D01*
X28101Y39103D01*
X28000Y39161D01*
Y39225D01*
X27783D01*
X27731Y39366D01*
X31797Y42850D01*
X31802Y42859D01*
X31811Y42863D01*
X31829Y42913D01*
X31853Y42960D01*
X31850Y42970D01*
X31854Y42980D01*
X31751Y45341D01*
X31728Y45389D01*
X31713Y45439D01*
X31703Y45444D01*
X31698Y45454D01*
X31649Y45472D01*
X31602Y45496D01*
X28900Y45726D01*
X28865Y45714D01*
X28828Y45715D01*
X28808Y45696D01*
X28782Y45688D01*
X28765Y45655D01*
X28738Y45630D01*
X28252Y44535D01*
X28251Y44500D01*
X28238Y44469D01*
Y41867D01*
X25660Y39290D01*
X25613Y39175D01*
Y38203D01*
X25438D01*
Y37588D01*
X25288D01*
Y38203D01*
X25137D01*
Y39458D01*
X27990Y42310D01*
X28037Y42425D01*
Y45203D01*
X28020Y45243D01*
X28014Y45287D01*
X27997Y45299D01*
X27990Y45317D01*
X27949Y45334D01*
X27913Y45360D01*
X26103Y45797D01*
X26083Y45794D01*
X26065Y45802D01*
D02*
G37*
G36*
X18300Y39400D02*
X16500D01*
Y37800D01*
X18300D01*
Y39400D01*
D02*
G37*
G36*
X28000Y37775D02*
X27600D01*
Y37375D01*
X28000D01*
Y37775D01*
D02*
G37*
G36*
X27450D02*
X27050D01*
Y37375D01*
X27450D01*
Y37775D01*
D02*
G37*
G36*
X16341Y37515D02*
X15516D01*
Y36790D01*
X16341D01*
Y37515D01*
D02*
G37*
G36*
X15366D02*
X14541D01*
Y36790D01*
X15366D01*
Y37515D01*
D02*
G37*
G36*
X18300Y37500D02*
X17475D01*
Y36775D01*
X18300D01*
Y37500D01*
D02*
G37*
G36*
X17325D02*
X16500D01*
Y36775D01*
X17325D01*
Y37500D01*
D02*
G37*
G36*
X31009Y37445D02*
Y36720D01*
X31834D01*
Y37445D01*
X31009D01*
D02*
G37*
G36*
X16341Y36640D02*
X15516D01*
Y35915D01*
X16341D01*
Y36640D01*
D02*
G37*
G36*
X18300Y36625D02*
X17475D01*
Y35900D01*
X18300D01*
Y36625D01*
D02*
G37*
G36*
X17325D02*
X16500D01*
Y35900D01*
X17325D01*
Y36625D01*
D02*
G37*
G36*
X31834Y36570D02*
X31009D01*
Y35845D01*
X31834D01*
Y36570D01*
D02*
G37*
G36*
X30034Y37445D02*
X29890Y37431D01*
X29177D01*
Y36631D01*
Y35831D01*
X29890D01*
X30002Y35831D01*
X30147Y35845D01*
X30859D01*
Y36645D01*
Y37445D01*
X30147D01*
X30034Y37445D01*
D02*
G37*
G36*
X28853Y33651D02*
X28453D01*
Y33251D01*
X28853D01*
Y33651D01*
D02*
G37*
G36*
X30419Y33905D02*
X30240D01*
X30075Y33837D01*
X29948Y33710D01*
X29880Y33545D01*
Y33366D01*
X29948Y33200D01*
X30075Y33074D01*
X30240Y33005D01*
X30419D01*
X30585Y33074D01*
X30711Y33200D01*
X30780Y33366D01*
Y33545D01*
X30711Y33710D01*
X30585Y33837D01*
X30419Y33905D01*
D02*
G37*
G36*
X28853Y33101D02*
X28453D01*
Y32701D01*
X28853D01*
Y33101D01*
D02*
G37*
G36*
X28126Y31476D02*
X27947D01*
X27781Y31407D01*
X27655Y31281D01*
X27586Y31115D01*
Y30936D01*
X27655Y30771D01*
X27781Y30644D01*
X27947Y30576D01*
X28126D01*
X28291Y30644D01*
X28418Y30771D01*
X28486Y30936D01*
Y31115D01*
X28418Y31281D01*
X28291Y31407D01*
X28126Y31476D01*
D02*
G37*
G36*
X14050Y30000D02*
X13650D01*
Y29600D01*
X14050D01*
Y30000D01*
D02*
G37*
G36*
X13500D02*
X13100D01*
Y29600D01*
X13500D01*
Y30000D01*
D02*
G37*
G36*
X21301Y33229D02*
X18801D01*
Y28629D01*
X21301D01*
Y33229D01*
D02*
G37*
G36*
X31608Y30265D02*
X31352D01*
X31103Y30199D01*
X30881Y30071D01*
X30699Y29889D01*
X30571Y29667D01*
X30504Y29418D01*
Y29162D01*
X30571Y28913D01*
X30699Y28691D01*
X30881Y28509D01*
X31103Y28381D01*
X31352Y28315D01*
X31608D01*
X31857Y28381D01*
X32079Y28509D01*
X32261Y28691D01*
X32389Y28913D01*
X32456Y29162D01*
Y29418D01*
X32389Y29667D01*
X32261Y29889D01*
X32079Y30071D01*
X31857Y30199D01*
X31608Y30265D01*
D02*
G37*
G36*
X11363Y26684D02*
X11184D01*
X11019Y26615D01*
X10892Y26489D01*
X10824Y26323D01*
Y26144D01*
X10892Y25979D01*
X11019Y25852D01*
X11184Y25784D01*
X11363D01*
X11529Y25852D01*
X11655Y25979D01*
X11724Y26144D01*
Y26323D01*
X11655Y26489D01*
X11529Y26615D01*
X11363Y26684D01*
D02*
G37*
G36*
X11379Y25287D02*
X11200D01*
X11035Y25219D01*
X10908Y25092D01*
X10839Y24927D01*
Y24748D01*
X10908Y24583D01*
X11035Y24456D01*
X11200Y24387D01*
X11379D01*
X11544Y24456D01*
X11671Y24583D01*
X11739Y24748D01*
Y24927D01*
X11671Y25092D01*
X11544Y25219D01*
X11379Y25287D01*
D02*
G37*
G36*
X31608Y25185D02*
X31352D01*
X31103Y25119D01*
X30881Y24991D01*
X30699Y24809D01*
X30571Y24587D01*
X30504Y24338D01*
Y24082D01*
X30571Y23833D01*
X30699Y23611D01*
X30881Y23429D01*
X31103Y23301D01*
X31352Y23235D01*
X31608D01*
X31857Y23301D01*
X32079Y23429D01*
X32261Y23611D01*
X32389Y23833D01*
X32456Y24082D01*
Y24338D01*
X32389Y24587D01*
X32261Y24809D01*
X32079Y24991D01*
X31857Y25119D01*
X31608Y25185D01*
D02*
G37*
G36*
X8748D02*
X8492D01*
X8243Y25119D01*
X8021Y24991D01*
X7839Y24809D01*
X7711Y24587D01*
X7644Y24338D01*
Y24082D01*
X7711Y23833D01*
X7839Y23611D01*
X8021Y23429D01*
X8243Y23301D01*
X8492Y23235D01*
X8748D01*
X8997Y23301D01*
X9219Y23429D01*
X9401Y23611D01*
X9529Y23833D01*
X9595Y24082D01*
Y24338D01*
X9529Y24587D01*
X9401Y24809D01*
X9219Y24991D01*
X8997Y25119D01*
X8748Y25185D01*
D02*
G37*
G36*
X21301Y24429D02*
X20126D01*
Y22204D01*
X21301D01*
Y24429D01*
D02*
G37*
G36*
X19976D02*
X18801D01*
Y22204D01*
X19976D01*
Y24429D01*
D02*
G37*
G36*
X31608Y22646D02*
X31352D01*
X31103Y22579D01*
X30881Y22451D01*
X30699Y22269D01*
X30571Y22047D01*
X30504Y21798D01*
Y21542D01*
X30571Y21293D01*
X30699Y21071D01*
X30881Y20889D01*
X31103Y20761D01*
X31352Y20694D01*
X31608D01*
X31857Y20761D01*
X32079Y20889D01*
X32261Y21071D01*
X32389Y21293D01*
X32456Y21542D01*
Y21798D01*
X32389Y22047D01*
X32261Y22269D01*
X32079Y22451D01*
X31857Y22579D01*
X31608Y22646D01*
D02*
G37*
G36*
X8748D02*
X8492D01*
X8243Y22579D01*
X8021Y22451D01*
X7839Y22269D01*
X7711Y22047D01*
X7644Y21798D01*
Y21542D01*
X7711Y21293D01*
X7839Y21071D01*
X8021Y20889D01*
X8243Y20761D01*
X8492Y20694D01*
X8748D01*
X8997Y20761D01*
X9219Y20889D01*
X9401Y21071D01*
X9529Y21293D01*
X9595Y21542D01*
Y21798D01*
X9529Y22047D01*
X9401Y22269D01*
X9219Y22451D01*
X8997Y22579D01*
X8748Y22646D01*
D02*
G37*
G36*
X21301Y22054D02*
X20126D01*
Y19829D01*
X21301D01*
Y22054D01*
D02*
G37*
G36*
X19976D02*
X18801D01*
Y19829D01*
X19976D01*
Y22054D01*
D02*
G37*
G36*
X31608Y20105D02*
X31352D01*
X31103Y20039D01*
X30881Y19911D01*
X30699Y19729D01*
X30571Y19507D01*
X30504Y19258D01*
Y19002D01*
X30571Y18753D01*
X30699Y18531D01*
X30881Y18349D01*
X31103Y18221D01*
X31352Y18154D01*
X31608D01*
X31857Y18221D01*
X32079Y18349D01*
X32261Y18531D01*
X32389Y18753D01*
X32456Y19002D01*
Y19258D01*
X32389Y19507D01*
X32261Y19729D01*
X32079Y19911D01*
X31857Y20039D01*
X31608Y20105D01*
D02*
G37*
G36*
X8748D02*
X8492D01*
X8243Y20039D01*
X8021Y19911D01*
X7839Y19729D01*
X7711Y19507D01*
X7644Y19258D01*
Y19002D01*
X7711Y18753D01*
X7839Y18531D01*
X8021Y18349D01*
X8243Y18221D01*
X8492Y18154D01*
X8748D01*
X8997Y18221D01*
X9219Y18349D01*
X9401Y18531D01*
X9529Y18753D01*
X9595Y19002D01*
Y19258D01*
X9529Y19507D01*
X9401Y19729D01*
X9219Y19911D01*
X8997Y20039D01*
X8748Y20105D01*
D02*
G37*
G36*
X31608Y17566D02*
X31352D01*
X31103Y17499D01*
X30881Y17371D01*
X30699Y17189D01*
X30571Y16967D01*
X30504Y16718D01*
Y16462D01*
X30571Y16213D01*
X30699Y15991D01*
X30881Y15809D01*
X31103Y15681D01*
X31352Y15615D01*
X31608D01*
X31857Y15681D01*
X32079Y15809D01*
X32261Y15991D01*
X32389Y16213D01*
X32456Y16462D01*
Y16718D01*
X32389Y16967D01*
X32261Y17189D01*
X32079Y17371D01*
X31857Y17499D01*
X31608Y17566D01*
D02*
G37*
G36*
X8748D02*
X8492D01*
X8243Y17499D01*
X8021Y17371D01*
X7839Y17189D01*
X7711Y16967D01*
X7644Y16718D01*
Y16462D01*
X7711Y16213D01*
X7839Y15991D01*
X8021Y15809D01*
X8243Y15681D01*
X8492Y15615D01*
X8748D01*
X8997Y15681D01*
X9219Y15809D01*
X9401Y15991D01*
X9529Y16213D01*
X9595Y16462D01*
Y16718D01*
X9529Y16967D01*
X9401Y17189D01*
X9219Y17371D01*
X8997Y17499D01*
X8748Y17566D01*
D02*
G37*
G36*
X31608Y15026D02*
X31352D01*
X31103Y14959D01*
X30881Y14831D01*
X30699Y14649D01*
X30571Y14427D01*
X30504Y14178D01*
Y13922D01*
X30571Y13673D01*
X30699Y13451D01*
X30881Y13269D01*
X31103Y13141D01*
X31352Y13075D01*
X31608D01*
X31857Y13141D01*
X32079Y13269D01*
X32261Y13451D01*
X32389Y13673D01*
X32456Y13922D01*
Y14178D01*
X32389Y14427D01*
X32261Y14649D01*
X32079Y14831D01*
X31857Y14959D01*
X31608Y15026D01*
D02*
G37*
G36*
X8770Y12635D02*
Y11660D01*
X9745D01*
X9669Y11944D01*
X9521Y12201D01*
X9311Y12411D01*
X9054Y12559D01*
X8770Y12635D01*
D02*
G37*
G36*
X31330D02*
X31046Y12559D01*
X30789Y12411D01*
X30579Y12201D01*
X30431Y11944D01*
X30355Y11660D01*
X31330D01*
Y12635D01*
D02*
G37*
G36*
X9745Y11360D02*
X8770D01*
Y10385D01*
X9054Y10461D01*
X9311Y10609D01*
X9521Y10819D01*
X9669Y11076D01*
X9745Y11360D01*
D02*
G37*
G36*
X31330D02*
X30355D01*
X30431Y11076D01*
X30579Y10819D01*
X30789Y10609D01*
X31046Y10461D01*
X31330Y10385D01*
Y11360D01*
D02*
G37*
%LPD*%
G36*
X10322Y45391D02*
X10331Y45387D01*
X10423D01*
X10750Y45375D01*
X11407Y44625D01*
Y43818D01*
Y38217D01*
X11372D01*
Y37601D01*
X11297D01*
Y37526D01*
X11027D01*
Y37494D01*
X10888Y37437D01*
X10450Y37875D01*
X10450Y39475D01*
X8800Y41125D01*
X8459Y43539D01*
X8607Y43569D01*
X8637Y43458D01*
X8690Y43259D01*
X8858Y42968D01*
X9095Y42731D01*
X9386Y42563D01*
X9710Y42476D01*
X9728D01*
Y43601D01*
X8603D01*
Y43596D01*
X8453Y43585D01*
X8333Y44437D01*
X9031Y45439D01*
X10322Y45391D01*
D02*
G37*
G36*
X14512Y45254D02*
X14825Y44878D01*
Y41900D01*
X12413Y39488D01*
Y38217D01*
X12372D01*
Y37601D01*
X12222D01*
Y38217D01*
X12060D01*
X12059Y38231D01*
X12059Y38264D01*
X12052Y38282D01*
Y38603D01*
X12032Y38701D01*
X12022Y38717D01*
X12010Y38773D01*
X11955Y38855D01*
X11950Y38859D01*
X11950Y43224D01*
X12100Y43234D01*
X12123Y43058D01*
X12202Y42866D01*
X12329Y42702D01*
X12493Y42576D01*
X12685Y42496D01*
X12890Y42469D01*
X13228D01*
Y43751D01*
Y45033D01*
X12890D01*
X12685Y45006D01*
X12493Y44926D01*
X12329Y44800D01*
X12202Y44636D01*
X12123Y44444D01*
X12100Y44269D01*
X11950Y44278D01*
Y45238D01*
X12058Y45342D01*
X14512Y45254D01*
D02*
G37*
G36*
X14694Y38666D02*
X14692Y38685D01*
X14686Y38702D01*
X14676Y38717D01*
X14662Y38730D01*
X14644Y38741D01*
X14622Y38750D01*
X14596Y38757D01*
X14566Y38762D01*
X14532Y38765D01*
X14494Y38766D01*
Y38966D01*
X14532Y38967D01*
X14566Y38970D01*
X14596Y38975D01*
X14622Y38982D01*
X14644Y38991D01*
X14662Y39002D01*
X14676Y39015D01*
X14686Y39030D01*
X14692Y39047D01*
X14694Y39066D01*
Y38666D01*
D02*
G37*
G36*
X14126Y39047D02*
X14132Y39030D01*
X14142Y39015D01*
X14156Y39002D01*
X14174Y38991D01*
X14196Y38982D01*
X14222Y38975D01*
X14252Y38970D01*
X14286Y38967D01*
X14324Y38966D01*
Y38766D01*
X14286Y38765D01*
X14252Y38762D01*
X14222Y38757D01*
X14196Y38750D01*
X14174Y38741D01*
X14156Y38730D01*
X14142Y38717D01*
X14132Y38702D01*
X14126Y38685D01*
X14124Y38666D01*
Y39066D01*
X14126Y39047D01*
D02*
G37*
G36*
X28355Y38550D02*
X28353Y38569D01*
X28347Y38586D01*
X28337Y38601D01*
X28323Y38614D01*
X28305Y38625D01*
X28283Y38634D01*
X28257Y38641D01*
X28227Y38646D01*
X28193Y38649D01*
X28155Y38650D01*
Y38850D01*
X28193Y38851D01*
X28227Y38854D01*
X28257Y38859D01*
X28283Y38866D01*
X28305Y38875D01*
X28323Y38886D01*
X28337Y38899D01*
X28347Y38914D01*
X28353Y38931D01*
X28355Y38950D01*
Y38550D01*
D02*
G37*
G36*
X27849Y38931D02*
X27855Y38914D01*
X27865Y38899D01*
X27879Y38886D01*
X27897Y38875D01*
X27919Y38866D01*
X27945Y38859D01*
X27975Y38854D01*
X28009Y38851D01*
X28047Y38850D01*
Y38650D01*
X28009Y38649D01*
X27975Y38646D01*
X27945Y38641D01*
X27919Y38634D01*
X27897Y38625D01*
X27879Y38614D01*
X27865Y38601D01*
X27855Y38586D01*
X27849Y38569D01*
X27847Y38550D01*
Y38950D01*
X27849Y38931D01*
D02*
G37*
G36*
X28651Y38454D02*
X28642Y38491D01*
X28631Y38525D01*
X28616Y38554D01*
X28598Y38580D01*
X28577Y38601D01*
X28553Y38619D01*
X28525Y38632D01*
X28495Y38642D01*
X28462Y38648D01*
X28425Y38650D01*
X28572Y38850D01*
X28603Y38851D01*
X28668Y38855D01*
X28738Y38865D01*
X28854Y38888D01*
X28938Y38910D01*
X28651Y38454D01*
D02*
G37*
G36*
X13756Y38544D02*
X13746Y38542D01*
X13734Y38538D01*
X13720Y38531D01*
X13705Y38521D01*
X13687Y38508D01*
X13646Y38475D01*
X13597Y38429D01*
X13570Y38402D01*
X13406Y38521D01*
X13420Y38536D01*
X13444Y38563D01*
X13453Y38576D01*
X13461Y38588D01*
X13468Y38600D01*
X13473Y38611D01*
X13477Y38621D01*
X13479Y38631D01*
X13480Y38640D01*
X13756Y38544D01*
D02*
G37*
G36*
X26621Y38050D02*
X26594Y38022D01*
X26570Y37994D01*
X26548Y37965D01*
X26530Y37937D01*
X26515Y37909D01*
X26502Y37881D01*
X26492Y37852D01*
X26485Y37824D01*
X26481Y37796D01*
X26479Y37767D01*
X26246Y38050D01*
X26265Y38052D01*
X26285Y38056D01*
X26306Y38063D01*
X26327Y38073D01*
X26350Y38086D01*
X26374Y38101D01*
X26399Y38120D01*
X26451Y38165D01*
X26479Y38192D01*
X26621Y38050D01*
D02*
G37*
G36*
X13055Y37887D02*
X13028Y37859D01*
X13004Y37831D01*
X12983Y37803D01*
X12964Y37774D01*
X12949Y37746D01*
X12936Y37718D01*
X12926Y37689D01*
X12919Y37661D01*
X12915Y37633D01*
X12913Y37605D01*
Y38064D01*
X12921Y38065D01*
X12930Y38068D01*
X12941Y38073D01*
X12953Y38081D01*
X12966Y38090D01*
X12997Y38116D01*
X13034Y38150D01*
X13055Y38170D01*
Y37887D01*
D02*
G37*
G36*
X31588Y45334D02*
X31692Y42973D01*
X27317Y39225D01*
X27050D01*
Y38996D01*
X26125Y38203D01*
X25938D01*
Y37588D01*
X25788D01*
Y38203D01*
X25775D01*
Y39175D01*
X28400Y41800D01*
Y44469D01*
X28887Y45564D01*
X31588Y45334D01*
D02*
G37*
G36*
X27875Y45203D02*
Y42425D01*
X24975Y39525D01*
Y38203D01*
X24938D01*
Y37588D01*
X24788D01*
Y38203D01*
X24750D01*
Y44325D01*
X26065Y45640D01*
X27875Y45203D01*
D02*
G37*
G36*
X23134Y37632D02*
X23126Y37610D01*
X23122Y37587D01*
X23122Y37565D01*
X23124Y37543D01*
X23130Y37520D01*
X23140Y37498D01*
X23153Y37477D01*
X23169Y37455D01*
X23189Y37433D01*
X22961Y37378D01*
X22941Y37398D01*
X22880Y37451D01*
X22859Y37467D01*
X22795Y37509D01*
X22773Y37521D01*
X22752Y37532D01*
X23145Y37655D01*
X23134Y37632D01*
D02*
G37*
G36*
X9905Y37600D02*
X9902Y37573D01*
X9901Y37547D01*
X9903Y37522D01*
X9908Y37498D01*
X9916Y37474D01*
X9927Y37451D01*
X9941Y37428D01*
X9957Y37406D01*
X9977Y37385D01*
X9793Y37286D01*
X9774Y37304D01*
X9753Y37321D01*
X9732Y37337D01*
X9709Y37352D01*
X9685Y37366D01*
X9659Y37379D01*
X9605Y37401D01*
X9576Y37411D01*
X9546Y37420D01*
X9912Y37627D01*
X9905Y37600D01*
D02*
G37*
G36*
X13786Y37441D02*
X13767Y37419D01*
X13751Y37396D01*
X13736Y37372D01*
X13724Y37347D01*
X13714Y37322D01*
X13707Y37296D01*
X13701Y37270D01*
X13698Y37242D01*
X13697Y37215D01*
X13497D01*
X13496Y37242D01*
X13492Y37270D01*
X13487Y37296D01*
X13479Y37322D01*
X13469Y37347D01*
X13457Y37372D01*
X13443Y37396D01*
X13426Y37419D01*
X13408Y37441D01*
X13387Y37463D01*
X13807D01*
X13786Y37441D01*
D02*
G37*
G36*
X13698Y37139D02*
X13701Y37105D01*
X13706Y37075D01*
X13713Y37049D01*
X13722Y37027D01*
X13733Y37009D01*
X13746Y36995D01*
X13761Y36985D01*
X13778Y36979D01*
X13797Y36977D01*
X13397D01*
X13416Y36979D01*
X13433Y36985D01*
X13448Y36995D01*
X13461Y37009D01*
X13472Y37027D01*
X13481Y37049D01*
X13488Y37075D01*
X13493Y37105D01*
X13496Y37139D01*
X13497Y37177D01*
X13697D01*
X13698Y37139D01*
D02*
G37*
G36*
X10271Y37092D02*
X10300Y37068D01*
X10328Y37046D01*
X10356Y37028D01*
X10384Y37013D01*
X10413Y37000D01*
X10441Y36990D01*
X10469Y36983D01*
X10497Y36979D01*
X10526Y36977D01*
X10094D01*
X10092Y36980D01*
X10088Y36985D01*
X10082Y36993D01*
X10008Y37070D01*
X9960Y37119D01*
X10243D01*
X10271Y37092D01*
D02*
G37*
G36*
X11898Y37145D02*
X11898Y37139D01*
X11913D01*
X11910Y37137D01*
X11907Y37131D01*
X11905Y37121D01*
X11903Y37107D01*
X11902Y37101D01*
X11906Y37081D01*
X11913Y37055D01*
X11922Y37033D01*
X11933Y37015D01*
X11946Y37001D01*
X11961Y36991D01*
X11978Y36985D01*
X11997Y36983D01*
X11897D01*
X11897Y36977D01*
X11897Y36939D01*
X11697D01*
X11697Y36977D01*
X11696Y36983D01*
X11597D01*
X11616Y36985D01*
X11633Y36991D01*
X11648Y37001D01*
X11661Y37015D01*
X11672Y37033D01*
X11681Y37055D01*
X11688Y37081D01*
X11689Y37088D01*
X11686Y37131D01*
X11683Y37137D01*
X11680Y37139D01*
X11695D01*
X11696Y37145D01*
X11697Y37183D01*
X11897D01*
X11898Y37145D01*
D02*
G37*
G36*
X25464Y37131D02*
X25464Y37125D01*
X25479D01*
X25476Y37123D01*
X25473Y37117D01*
X25471Y37107D01*
X25469Y37093D01*
X25468Y37088D01*
X25472Y37067D01*
X25479Y37041D01*
X25488Y37019D01*
X25499Y37001D01*
X25512Y36987D01*
X25527Y36977D01*
X25544Y36971D01*
X25563Y36969D01*
X25463D01*
X25463Y36963D01*
X25463Y36925D01*
X25263D01*
X25262Y36963D01*
X25262Y36969D01*
X25163D01*
X25182Y36971D01*
X25199Y36977D01*
X25214Y36987D01*
X25227Y37001D01*
X25238Y37019D01*
X25247Y37041D01*
X25254Y37067D01*
X25255Y37075D01*
X25252Y37117D01*
X25249Y37123D01*
X25246Y37125D01*
X25261D01*
X25262Y37131D01*
X25263Y37169D01*
X25463D01*
X25464Y37131D01*
D02*
G37*
G36*
X27778Y36753D02*
X27658Y36589D01*
X27630Y36616D01*
X27602Y36640D01*
X27574Y36661D01*
X27545Y36680D01*
X27517Y36695D01*
X27489Y36708D01*
X27460Y36718D01*
X27432Y36725D01*
X27404Y36729D01*
X27376Y36731D01*
X27566Y36964D01*
X27778Y36753D01*
D02*
G37*
G36*
X10094Y36244D02*
X10092Y36247D01*
X10086Y36250D01*
X10076Y36252D01*
X10062Y36255D01*
X10022Y36258D01*
X9932Y36260D01*
X9894Y36261D01*
Y36461D01*
X9932Y36461D01*
X10086Y36471D01*
X10092Y36474D01*
X10094Y36477D01*
Y36244D01*
D02*
G37*
G36*
X23660Y36231D02*
X23658Y36234D01*
X23652Y36237D01*
X23642Y36239D01*
X23628Y36241D01*
X23588Y36245D01*
X23498Y36247D01*
X23460Y36247D01*
Y36447D01*
X23498Y36447D01*
X23652Y36458D01*
X23658Y36461D01*
X23660Y36464D01*
Y36231D01*
D02*
G37*
G36*
X22186Y36543D02*
X22207Y36523D01*
X22228Y36505D01*
X22250Y36490D01*
X22273Y36477D01*
X22298Y36466D01*
X22323Y36458D01*
X22349Y36452D01*
X22376Y36448D01*
X22404Y36447D01*
X22382Y36247D01*
X22355Y36246D01*
X22328Y36243D01*
X22301Y36238D01*
X22275Y36231D01*
X22249Y36222D01*
X22223Y36211D01*
X22198Y36198D01*
X22173Y36183D01*
X22148Y36166D01*
X22124Y36147D01*
X22167Y36565D01*
X22186Y36543D01*
D02*
G37*
G36*
X8845Y36506D02*
X8906Y36488D01*
X8938Y36481D01*
X9007Y36470D01*
X9043Y36466D01*
X9159Y36461D01*
X9184Y36261D01*
X9155Y36259D01*
X9128Y36256D01*
X9103Y36249D01*
X9080Y36240D01*
X9059Y36229D01*
X9040Y36215D01*
X9024Y36198D01*
X9009Y36179D01*
X8996Y36158D01*
X8986Y36134D01*
X8816Y36517D01*
X8845Y36506D01*
D02*
G37*
G36*
X25952Y36116D02*
X25926Y36124D01*
X25900Y36129D01*
X25875Y36130D01*
X25850Y36129D01*
X25826Y36125D01*
X25803Y36117D01*
X25780Y36107D01*
X25757Y36093D01*
X25735Y36077D01*
X25714Y36057D01*
X25624Y36250D01*
X25642Y36269D01*
X25659Y36289D01*
X25675Y36310D01*
X25705Y36356D01*
X25719Y36381D01*
X25743Y36434D01*
X25754Y36463D01*
X25765Y36492D01*
X25952Y36116D01*
D02*
G37*
G36*
X14212Y36266D02*
X14093Y36103D01*
X14064Y36129D01*
X14036Y36153D01*
X14008Y36175D01*
X13979Y36193D01*
X13951Y36209D01*
X13923Y36221D01*
X13895Y36231D01*
X13866Y36238D01*
X13838Y36243D01*
X13810Y36244D01*
X14000Y36477D01*
X14212Y36266D01*
D02*
G37*
G36*
X12229Y36196D02*
X12104Y36000D01*
X12047Y36011D01*
Y36211D01*
X12229Y36196D01*
D02*
G37*
G36*
X27778Y35753D02*
X27658Y35589D01*
X27630Y35616D01*
X27602Y35640D01*
X27574Y35661D01*
X27545Y35680D01*
X27517Y35695D01*
X27489Y35708D01*
X27460Y35718D01*
X27432Y35725D01*
X27404Y35729D01*
X27376Y35731D01*
X27566Y35964D01*
X27778Y35753D01*
D02*
G37*
G36*
X23850Y35731D02*
X23821Y35729D01*
X23793Y35725D01*
X23765Y35718D01*
X23736Y35708D01*
X23708Y35695D01*
X23680Y35680D01*
X23652Y35661D01*
X23623Y35640D01*
X23595Y35616D01*
X23567Y35589D01*
X23447Y35753D01*
X23660Y35964D01*
X23850Y35731D01*
D02*
G37*
G36*
X13700Y35242D02*
X13683Y35236D01*
X13668Y35226D01*
X13655Y35212D01*
X13644Y35194D01*
X13635Y35172D01*
X13628Y35146D01*
X13623Y35116D01*
X13620Y35082D01*
X13619Y35044D01*
X13419D01*
X13418Y35082D01*
X13415Y35116D01*
X13410Y35146D01*
X13403Y35172D01*
X13394Y35194D01*
X13383Y35212D01*
X13370Y35226D01*
X13355Y35236D01*
X13338Y35242D01*
X13319Y35244D01*
X13719D01*
X13700Y35242D01*
D02*
G37*
G36*
X10331D02*
X10314Y35236D01*
X10299Y35226D01*
X10286Y35212D01*
X10275Y35194D01*
X10266Y35172D01*
X10259Y35146D01*
X10254Y35116D01*
X10251Y35082D01*
X10250Y35044D01*
X10050D01*
X10094Y35244D01*
X10350D01*
X10331Y35242D01*
D02*
G37*
G36*
X27266Y35229D02*
X27249Y35223D01*
X27234Y35213D01*
X27221Y35199D01*
X27210Y35181D01*
X27201Y35159D01*
X27194Y35133D01*
X27189Y35103D01*
X27186Y35069D01*
X27185Y35031D01*
X26985D01*
X26984Y35069D01*
X26981Y35103D01*
X26976Y35133D01*
X26969Y35159D01*
X26960Y35181D01*
X26949Y35199D01*
X26936Y35213D01*
X26921Y35223D01*
X26904Y35229D01*
X26885Y35231D01*
X27285D01*
X27266Y35229D01*
D02*
G37*
G36*
X28201Y34810D02*
X28204Y34783D01*
X28210Y34756D01*
X28218Y34730D01*
X28228Y34705D01*
X28240Y34681D01*
X28254Y34657D01*
X28270Y34634D01*
X28289Y34611D01*
X28310Y34589D01*
X27890D01*
X27911Y34611D01*
X27930Y34634D01*
X27946Y34657D01*
X27960Y34681D01*
X27972Y34705D01*
X27982Y34730D01*
X27990Y34756D01*
X27996Y34783D01*
X27999Y34810D01*
X28000Y34838D01*
X28200D01*
X28201Y34810D01*
D02*
G37*
G36*
X27186Y34785D02*
X27189Y34757D01*
X27195Y34731D01*
X27203Y34705D01*
X27213Y34680D01*
X27225Y34655D01*
X27239Y34632D01*
X27255Y34608D01*
X27274Y34586D01*
X27295Y34564D01*
X26875D01*
X26896Y34586D01*
X26915Y34608D01*
X26931Y34632D01*
X26945Y34655D01*
X26958Y34680D01*
X26967Y34705D01*
X26975Y34731D01*
X26981Y34757D01*
X26984Y34785D01*
X26985Y34812D01*
X27185D01*
X27186Y34785D01*
D02*
G37*
G36*
X13620Y34716D02*
X13623Y34689D01*
X13629Y34662D01*
X13636Y34636D01*
X13646Y34611D01*
X13658Y34586D01*
X13673Y34563D01*
X13689Y34539D01*
X13708Y34517D01*
X13729Y34495D01*
X13309D01*
X13330Y34517D01*
X13348Y34539D01*
X13365Y34563D01*
X13379Y34586D01*
X13391Y34611D01*
X13401Y34636D01*
X13409Y34662D01*
X13414Y34689D01*
X13418Y34716D01*
X13419Y34744D01*
X13619D01*
X13620Y34716D01*
D02*
G37*
G36*
X12916Y33958D02*
X12716D01*
X12716Y33996D01*
X12707Y34108D01*
X12703Y34126D01*
X12699Y34140D01*
X12693Y34150D01*
X12687Y34156D01*
X12680Y34158D01*
X12913D01*
X12916Y33958D01*
D02*
G37*
G36*
X12410Y34156D02*
X12408Y34150D01*
X12406Y34140D01*
X12404Y34126D01*
X12400Y34086D01*
X12398Y33958D01*
X12198D01*
X12198Y33996D01*
X12189Y34140D01*
X12187Y34150D01*
X12184Y34156D01*
X12180Y34158D01*
X12413D01*
X12410Y34156D01*
D02*
G37*
G36*
X11413Y34158D02*
X11399Y34155D01*
X11382Y34149D01*
X11361Y34138D01*
X11338Y34124D01*
X11312Y34105D01*
X11251Y34054D01*
X11178Y33986D01*
X11137Y33945D01*
X11039Y34130D01*
X11066Y34158D01*
X11090Y34187D01*
X11111Y34215D01*
X11129Y34243D01*
X11145Y34272D01*
X11157Y34300D01*
X11167Y34328D01*
X11174Y34356D01*
X11179Y34385D01*
X11180Y34413D01*
X11413Y34158D01*
D02*
G37*
G36*
X26476Y34142D02*
X26473Y34136D01*
X26471Y34126D01*
X26469Y34112D01*
X26465Y34072D01*
X26463Y33982D01*
X26463Y33944D01*
X26263D01*
X26262Y33982D01*
X26252Y34136D01*
X26249Y34142D01*
X26246Y34144D01*
X26479D01*
X26476Y34142D01*
D02*
G37*
G36*
X25976D02*
X25973Y34136D01*
X25971Y34126D01*
X25969Y34112D01*
X25965Y34072D01*
X25963Y33982D01*
X25963Y33944D01*
X25763D01*
X25762Y33982D01*
X25752Y34136D01*
X25749Y34142D01*
X25746Y34144D01*
X25979D01*
X25976Y34142D01*
D02*
G37*
G36*
X25491Y33944D02*
X25291D01*
X25291Y33982D01*
X25284Y34072D01*
X25280Y34094D01*
X25275Y34112D01*
X25269Y34126D01*
X25262Y34136D01*
X25255Y34142D01*
X25246Y34144D01*
X25479D01*
X25491Y33944D01*
D02*
G37*
G36*
X27274Y34113D02*
X27255Y34091D01*
X27239Y34068D01*
X27225Y34044D01*
X27213Y34019D01*
X27203Y33994D01*
X27195Y33968D01*
X27189Y33942D01*
X27186Y33915D01*
X27185Y33887D01*
X26985D01*
X26984Y33915D01*
X26981Y33942D01*
X26975Y33968D01*
X26967Y33994D01*
X26958Y34019D01*
X26945Y34044D01*
X26931Y34068D01*
X26915Y34091D01*
X26896Y34113D01*
X26875Y34135D01*
X27295D01*
X27274Y34113D01*
D02*
G37*
G36*
X13708Y34045D02*
X13689Y34022D01*
X13673Y33999D01*
X13658Y33975D01*
X13646Y33950D01*
X13636Y33925D01*
X13629Y33899D01*
X13623Y33873D01*
X13620Y33846D01*
X13619Y33818D01*
X13419D01*
X13418Y33846D01*
X13414Y33873D01*
X13409Y33899D01*
X13401Y33925D01*
X13391Y33950D01*
X13379Y33975D01*
X13365Y33999D01*
X13348Y34022D01*
X13330Y34045D01*
X13309Y34066D01*
X13729D01*
X13708Y34045D01*
D02*
G37*
G36*
X14366Y33824D02*
X14369Y33797D01*
X14375Y33770D01*
X14382Y33745D01*
X14392Y33719D01*
X14404Y33695D01*
X14418Y33671D01*
X14435Y33648D01*
X14454Y33625D01*
X14475Y33603D01*
X14055D01*
X14075Y33625D01*
X14094Y33648D01*
X14111Y33671D01*
X14125Y33695D01*
X14137Y33719D01*
X14147Y33745D01*
X14155Y33770D01*
X14160Y33797D01*
X14163Y33824D01*
X14165Y33852D01*
X14365D01*
X14366Y33824D01*
D02*
G37*
G36*
X12918Y32697D02*
X12921Y32670D01*
X12927Y32644D01*
X12935Y32618D01*
X12946Y32594D01*
X12958Y32571D01*
X12974Y32548D01*
X12991Y32527D01*
X13011Y32506D01*
X13033Y32487D01*
X12615Y32449D01*
X12634Y32473D01*
X12651Y32498D01*
X12667Y32522D01*
X12680Y32548D01*
X12691Y32573D01*
X12700Y32599D01*
X12707Y32625D01*
X12712Y32652D01*
X12715Y32679D01*
X12716Y32706D01*
X12916Y32725D01*
X12918Y32697D01*
D02*
G37*
G36*
X26539Y32329D02*
X26560Y32312D01*
X26583Y32297D01*
X26607Y32285D01*
X26632Y32274D01*
X26657Y32265D01*
X26684Y32258D01*
X26713Y32253D01*
X26742Y32251D01*
X26772Y32250D01*
X26475Y31953D01*
X26474Y31983D01*
X26472Y32012D01*
X26467Y32041D01*
X26460Y32068D01*
X26451Y32093D01*
X26440Y32118D01*
X26428Y32142D01*
X26413Y32165D01*
X26396Y32186D01*
X26377Y32207D01*
X26518Y32348D01*
X26539Y32329D01*
D02*
G37*
G36*
X13620Y31459D02*
X13623Y31425D01*
X13628Y31395D01*
X13635Y31369D01*
X13644Y31347D01*
X13655Y31329D01*
X13668Y31315D01*
X13683Y31305D01*
X13700Y31299D01*
X13719Y31297D01*
X13319D01*
X13338Y31299D01*
X13355Y31305D01*
X13370Y31315D01*
X13383Y31329D01*
X13394Y31347D01*
X13403Y31369D01*
X13410Y31395D01*
X13415Y31425D01*
X13418Y31459D01*
X13419Y31497D01*
X13619D01*
X13620Y31459D01*
D02*
G37*
G36*
X29364Y30384D02*
X29368Y30357D01*
X29373Y30331D01*
X29381Y30305D01*
X29391Y30279D01*
X29403Y30255D01*
X29417Y30231D01*
X29434Y30208D01*
X29452Y30185D01*
X29473Y30163D01*
X29053D01*
X29074Y30185D01*
X29093Y30208D01*
X29109Y30231D01*
X29124Y30255D01*
X29136Y30279D01*
X29146Y30305D01*
X29153Y30331D01*
X29159Y30357D01*
X29162Y30384D01*
X29163Y30412D01*
X29363D01*
X29364Y30384D01*
D02*
G37*
G36*
X11141Y29740D02*
X11145Y29713D01*
X11150Y29686D01*
X11158Y29660D01*
X11168Y29635D01*
X11180Y29611D01*
X11194Y29587D01*
X11211Y29563D01*
X11229Y29541D01*
X11250Y29519D01*
X10830D01*
X10851Y29541D01*
X10870Y29563D01*
X10886Y29587D01*
X10901Y29611D01*
X10913Y29635D01*
X10923Y29660D01*
X10930Y29686D01*
X10936Y29713D01*
X10939Y29740D01*
X10940Y29768D01*
X11140D01*
X11141Y29740D01*
D02*
G37*
G36*
X29452Y29713D02*
X29434Y29690D01*
X29417Y29667D01*
X29403Y29643D01*
X29391Y29619D01*
X29381Y29594D01*
X29373Y29568D01*
X29368Y29541D01*
X29364Y29514D01*
X29363Y29486D01*
X29163D01*
X29162Y29514D01*
X29159Y29541D01*
X29153Y29568D01*
X29146Y29594D01*
X29136Y29619D01*
X29124Y29643D01*
X29109Y29667D01*
X29093Y29690D01*
X29074Y29713D01*
X29053Y29735D01*
X29473D01*
X29452Y29713D01*
D02*
G37*
G36*
X23508Y28902D02*
X23511Y28874D01*
X23517Y28848D01*
X23525Y28822D01*
X23535Y28798D01*
X23548Y28774D01*
X23562Y28751D01*
X23579Y28728D01*
X23599Y28707D01*
X23620Y28686D01*
X23201Y28666D01*
X23221Y28689D01*
X23239Y28713D01*
X23255Y28737D01*
X23268Y28761D01*
X23280Y28786D01*
X23290Y28812D01*
X23297Y28838D01*
X23302Y28865D01*
X23305Y28892D01*
X23307Y28919D01*
X23507Y28930D01*
X23508Y28902D01*
D02*
G37*
G36*
X15222Y27704D02*
X15223Y27676D01*
X15226Y27649D01*
X15231Y27622D01*
X15238Y27596D01*
X15248Y27571D01*
X15259Y27545D01*
X15273Y27521D01*
X15288Y27496D01*
X15306Y27472D01*
X15326Y27449D01*
X14907Y27475D01*
X14929Y27495D01*
X14948Y27516D01*
X14965Y27538D01*
X14980Y27561D01*
X14993Y27585D01*
X15003Y27610D01*
X15011Y27635D01*
X15017Y27661D01*
X15020Y27689D01*
X15022Y27717D01*
X15222Y27704D01*
D02*
G37*
G36*
X9620Y27609D02*
X9586Y27568D01*
X9555Y27517D01*
X9528Y27456D01*
X9505Y27386D01*
X9486Y27305D01*
X9470Y27216D01*
X9458Y27116D01*
X9446Y26887D01*
X9445Y26758D01*
X8628Y27575D01*
X8757Y27576D01*
X9086Y27600D01*
X9175Y27616D01*
X9256Y27635D01*
X9326Y27658D01*
X9387Y27685D01*
X9438Y27716D01*
X9479Y27750D01*
X9620Y27609D01*
D02*
G37*
G36*
X30485Y27511D02*
X30539Y27480D01*
X30599Y27457D01*
X30665Y27442D01*
X30739Y27436D01*
X30818Y27438D01*
X30904Y27448D01*
X30997Y27466D01*
X31096Y27492D01*
X31202Y27527D01*
X30697Y26488D01*
X30646Y26638D01*
X30366Y27336D01*
X30346Y27360D01*
X30438Y27551D01*
X30485Y27511D01*
D02*
G37*
G36*
X24431Y25871D02*
X24403Y25885D01*
X24348Y25908D01*
X24321Y25918D01*
X24267Y25932D01*
X24240Y25937D01*
X24187Y25943D01*
X24160Y25944D01*
X24090Y26144D01*
X24119Y26145D01*
X24146Y26149D01*
X24172Y26155D01*
X24195Y26164D01*
X24217Y26176D01*
X24238Y26190D01*
X24256Y26206D01*
X24273Y26225D01*
X24288Y26246D01*
X24301Y26270D01*
X24431Y25871D01*
D02*
G37*
G36*
X26476Y19417D02*
X26498Y19401D01*
X26520Y19388D01*
X26543Y19378D01*
X26566Y19371D01*
X26589Y19367D01*
X26613Y19366D01*
X26638Y19368D01*
X26663Y19374D01*
X26688Y19383D01*
X26519Y18998D01*
X26508Y19027D01*
X26483Y19081D01*
X26469Y19106D01*
X26440Y19154D01*
X26424Y19176D01*
X26391Y19217D01*
X26373Y19236D01*
X26454Y19437D01*
X26476Y19417D01*
D02*
G37*
G36*
X26664Y17129D02*
X26685Y17112D01*
X26708Y17097D01*
X26732Y17085D01*
X26757Y17074D01*
X26782Y17065D01*
X26809Y17058D01*
X26838Y17053D01*
X26867Y17051D01*
X26897Y17050D01*
X26600Y16753D01*
X26599Y16783D01*
X26597Y16812D01*
X26592Y16841D01*
X26585Y16868D01*
X26576Y16893D01*
X26565Y16918D01*
X26553Y16942D01*
X26538Y16965D01*
X26521Y16986D01*
X26502Y17007D01*
X26643Y17148D01*
X26664Y17129D01*
D02*
G37*
G36*
X9620Y14909D02*
X9586Y14868D01*
X9555Y14817D01*
X9528Y14756D01*
X9505Y14686D01*
X9486Y14605D01*
X9470Y14516D01*
X9458Y14416D01*
X9446Y14187D01*
X9445Y14058D01*
X8628Y14875D01*
X8757Y14876D01*
X9086Y14900D01*
X9175Y14916D01*
X9256Y14935D01*
X9326Y14958D01*
X9387Y14985D01*
X9438Y15016D01*
X9479Y15050D01*
X9620Y14909D01*
D02*
G37*
%LPC*%
G36*
X10046Y45026D02*
X10028D01*
Y43901D01*
X11153D01*
Y43919D01*
X11066Y44243D01*
X10898Y44534D01*
X10661Y44771D01*
X10370Y44939D01*
X10046Y45026D01*
D02*
G37*
G36*
X9728D02*
X9710D01*
X9386Y44939D01*
X9095Y44771D01*
X8858Y44534D01*
X8690Y44243D01*
X8603Y43919D01*
Y43901D01*
X9728D01*
Y45026D01*
D02*
G37*
G36*
X11153Y43601D02*
X10028D01*
Y42476D01*
X10046D01*
X10370Y42563D01*
X10661Y42731D01*
X10898Y42968D01*
X11066Y43259D01*
X11153Y43583D01*
Y43601D01*
D02*
G37*
G36*
X11222Y38217D02*
X11027D01*
Y37676D01*
X11222D01*
Y38217D01*
D02*
G37*
G36*
X13865Y45033D02*
X13528D01*
Y43901D01*
X14660D01*
Y44239D01*
X14633Y44444D01*
X14553Y44636D01*
X14427Y44800D01*
X14262Y44926D01*
X14071Y45006D01*
X13865Y45033D01*
D02*
G37*
G36*
X14660Y43601D02*
X13528D01*
Y42469D01*
X13865D01*
X14071Y42496D01*
X14262Y42576D01*
X14427Y42702D01*
X14553Y42866D01*
X14633Y43058D01*
X14660Y43264D01*
Y43601D01*
D02*
G37*
G36*
X30400Y45085D02*
X30062D01*
Y43953D01*
X31194D01*
Y44291D01*
X31167Y44496D01*
X31088Y44688D01*
X30961Y44852D01*
X30797Y44979D01*
X30605Y45058D01*
X30400Y45085D01*
D02*
G37*
G36*
X29762D02*
X29425D01*
X29219Y45058D01*
X29028Y44979D01*
X28863Y44852D01*
X28737Y44688D01*
X28658Y44496D01*
X28630Y44291D01*
Y43953D01*
X29762D01*
Y45085D01*
D02*
G37*
G36*
X31194Y43653D02*
X30062D01*
Y42521D01*
X30400D01*
X30605Y42549D01*
X30797Y42628D01*
X30961Y42754D01*
X31088Y42919D01*
X31167Y43110D01*
X31194Y43316D01*
Y43653D01*
D02*
G37*
G36*
X29762D02*
X28630D01*
Y43316D01*
X28658Y43110D01*
X28737Y42919D01*
X28863Y42754D01*
X29028Y42628D01*
X29219Y42549D01*
X29425Y42521D01*
X29762D01*
Y43653D01*
D02*
G37*
G36*
X26580Y45078D02*
X26562D01*
Y43953D01*
X27687D01*
Y43971D01*
X27600Y44295D01*
X27433Y44586D01*
X27195Y44824D01*
X26904Y44991D01*
X26580Y45078D01*
D02*
G37*
G36*
X26262D02*
X26244D01*
X25920Y44991D01*
X25629Y44824D01*
X25392Y44586D01*
X25224Y44295D01*
X25137Y43971D01*
Y43953D01*
X26262D01*
Y45078D01*
D02*
G37*
G36*
X27687Y43653D02*
X26562D01*
Y42528D01*
X26580D01*
X26904Y42615D01*
X27195Y42783D01*
X27433Y43020D01*
X27600Y43311D01*
X27687Y43635D01*
Y43653D01*
D02*
G37*
G36*
X26262D02*
X25137D01*
Y43635D01*
X25224Y43311D01*
X25392Y43020D01*
X25629Y42783D01*
X25920Y42615D01*
X26244Y42528D01*
X26262D01*
Y43653D01*
D02*
G37*
%LPD*%
D13*
X11797Y36361D02*
Y37601D01*
X12047Y36111D02*
X12239D01*
X11797Y36361D02*
X12047Y36111D01*
X11775Y38625D02*
Y38675D01*
X11797Y37601D02*
Y38603D01*
X11775Y38625D02*
X11797Y38603D01*
X12239Y36111D02*
X12400Y35950D01*
X25363Y36347D02*
X25613Y36097D01*
X25915Y36400D01*
X26050D01*
X25363Y36347D02*
Y37588D01*
X13489Y36373D02*
X13964D01*
X23407Y35570D02*
X23683Y35847D01*
X24122D01*
X23407Y28476D02*
X23421Y28462D01*
X23407Y28476D02*
Y35570D01*
X10202Y35853D02*
X10218Y35868D01*
X10044Y35853D02*
X10202D01*
X9800Y35609D02*
X10044Y35853D01*
X9800Y27930D02*
Y35609D01*
X8620Y26750D02*
X9800Y27930D01*
X15122Y27266D02*
Y35215D01*
X13964Y36373D02*
X15122Y35215D01*
X15103Y27248D02*
X15122Y27266D01*
X28884Y38750D02*
X29102Y38531D01*
X27525Y38750D02*
X28884D01*
X29263Y28585D02*
Y29949D01*
Y28585D02*
X31098Y26750D01*
X27893Y36087D02*
X29263Y34717D01*
Y29949D02*
Y34717D01*
X31098Y26750D02*
X31480D01*
X21932Y36378D02*
X21963Y36347D01*
X24122D01*
X14106Y35730D02*
X14265Y35572D01*
X13903Y35841D02*
X14013Y35730D01*
X13520Y35841D02*
X13903D01*
X14265Y33389D02*
Y35572D01*
X14013Y35730D02*
X14106D01*
X13519Y34281D02*
Y35342D01*
Y31031D02*
Y34281D01*
Y35342D02*
X13537Y35361D01*
X13519Y31031D02*
X13575Y30975D01*
X13597Y36880D02*
Y37677D01*
X13537Y36861D02*
X13577D01*
X13597Y36880D01*
X13892Y38866D02*
X15190D01*
X13802D02*
X13892D01*
X13477Y38451D02*
X13892Y38866D01*
X13477Y38437D02*
Y38451D01*
X13330Y38291D02*
X13477Y38437D01*
X13317Y38291D02*
X13330D01*
X12797Y37771D02*
X13317Y38291D01*
X12797Y37601D02*
Y37771D01*
X15190Y38866D02*
X15441Y38615D01*
X27179Y38750D02*
X27525D01*
X26363Y37934D02*
X27179Y38750D01*
X11927Y27161D02*
Y34490D01*
Y27161D02*
X13501Y25587D01*
X12293Y32482D02*
X12298Y32487D01*
X25343Y25566D02*
X25391D01*
X12293Y27407D02*
X13656Y26044D01*
X12293Y27407D02*
Y32482D01*
X11797Y34620D02*
X11927Y34490D01*
X25391Y18259D02*
Y25566D01*
X27085Y34350D02*
Y35329D01*
X12294Y34618D02*
X12298Y34614D01*
X24477Y26044D02*
X24570Y26137D01*
X13656Y26044D02*
X24477D01*
X25364Y25587D02*
X25391Y25614D01*
X13501Y25587D02*
X25364D01*
X10150Y15580D02*
Y35301D01*
X8620Y14050D02*
X10150Y15580D01*
Y35301D02*
X10218Y35368D01*
X11040Y33990D02*
X11277Y34227D01*
X11040Y29305D02*
Y33990D01*
X12298Y32487D02*
Y34614D01*
X12294Y34618D02*
Y34618D01*
X12297Y34620D01*
X25391Y18259D02*
X26900Y16750D01*
X25363Y34607D02*
X25391Y34578D01*
Y25614D02*
Y34578D01*
X11277Y34600D02*
X11297Y34620D01*
X11277Y34227D02*
Y34600D01*
X26363Y37588D02*
Y37934D01*
X20144Y29492D02*
X20274Y29621D01*
X27893Y36087D02*
Y36496D01*
X27542Y36847D02*
X27893Y36496D01*
X10360Y36861D02*
X10556D01*
X9700Y37520D02*
X10360Y36861D01*
X9700Y37520D02*
Y37633D01*
X23634Y36847D02*
X24122D01*
X22884Y37598D02*
X23634Y36847D01*
X22884Y37598D02*
Y37802D01*
X8935Y36361D02*
X10556D01*
X8813Y36238D02*
X8935Y36361D01*
X9624Y37710D02*
X9700Y37633D01*
X27085Y35329D02*
X27103Y35347D01*
X27085Y33697D02*
X27275Y33507D01*
X27085Y33697D02*
Y34350D01*
X27275Y33457D02*
Y33507D01*
X27362Y33369D02*
X27412D01*
X27275Y33457D02*
X27362Y33369D01*
X26363Y32362D02*
Y34607D01*
Y32362D02*
X26775Y31950D01*
X27562Y35828D02*
X28100Y35289D01*
Y34375D02*
Y35289D01*
X27123Y35828D02*
X27562D01*
X25863Y19887D02*
X26650Y19100D01*
X25863Y19887D02*
Y34607D01*
X12816Y32281D02*
Y34600D01*
X12797Y34620D02*
X12816Y34600D01*
Y32281D02*
X12843Y32255D01*
X8705Y36238D02*
X8813D01*
X27103Y36847D02*
X27542D01*
X27103Y35847D02*
X27123Y35828D01*
D16*
X13575Y30075D02*
D03*
X27525Y37850D02*
D03*
X13575Y30975D02*
D03*
X27525Y38750D02*
D03*
D17*
X11797Y37601D02*
D03*
X25363Y37588D02*
D03*
X26363D02*
D03*
X25863D02*
D03*
X24863D02*
D03*
Y34607D02*
D03*
X25363D02*
D03*
X25863D02*
D03*
X26363D02*
D03*
X12297Y37601D02*
D03*
X11297D02*
D03*
Y34620D02*
D03*
X11797D02*
D03*
X12297D02*
D03*
X12797D02*
D03*
Y37601D02*
D03*
D19*
X17400Y36700D02*
D03*
X15441Y36715D02*
D03*
X29102Y36631D02*
D03*
X30934Y36645D02*
D03*
X29102Y38531D02*
D03*
X17400Y38600D02*
D03*
X15441Y38615D02*
D03*
X30934Y38545D02*
D03*
D20*
X12902Y38866D02*
D03*
X28378Y33176D02*
D03*
X13802Y38866D02*
D03*
X27478Y33176D02*
D03*
D21*
X20051Y22129D02*
D03*
Y30929D02*
D03*
D22*
X27103Y35347D02*
D03*
Y35847D02*
D03*
Y36347D02*
D03*
Y36847D02*
D03*
X24122D02*
D03*
Y36347D02*
D03*
Y35347D02*
D03*
Y35847D02*
D03*
X10556Y35861D02*
D03*
X13537Y36361D02*
D03*
Y35361D02*
D03*
Y36861D02*
D03*
X10556D02*
D03*
Y36361D02*
D03*
Y35361D02*
D03*
X13537Y35861D02*
D03*
D24*
X12047Y36111D02*
D03*
X25613Y36097D02*
D03*
D37*
X3035Y45551D02*
D03*
X3029Y11256D02*
D03*
X37193Y45030D02*
D03*
D38*
X8620Y11510D02*
D03*
X31480D02*
D03*
X8620Y26750D02*
D03*
Y24210D02*
D03*
Y16590D02*
D03*
Y19130D02*
D03*
Y14050D02*
D03*
Y21670D02*
D03*
X31480D02*
D03*
Y24210D02*
D03*
Y14050D02*
D03*
Y19130D02*
D03*
Y26750D02*
D03*
Y16590D02*
D03*
Y29290D02*
D03*
D39*
X21744Y43780D02*
D03*
X13378Y43751D02*
D03*
X29912Y43803D02*
D03*
D40*
X2475Y55350D02*
D03*
X37750D02*
D03*
X2475Y2450D02*
D03*
X37750D02*
D03*
D41*
X8620Y29290D02*
D03*
D42*
X9878Y43751D02*
D03*
X26412Y43803D02*
D03*
X18244Y43780D02*
D03*
D43*
X21050Y27150D02*
D03*
X31096Y41012D02*
D03*
X15696Y46312D02*
D03*
X11171Y9437D02*
D03*
X26796Y9937D02*
D03*
X19746D02*
D03*
X30396Y45987D02*
D03*
X10421Y45837D02*
D03*
X22646Y48162D02*
D03*
X28096Y49387D02*
D03*
X11446Y48762D02*
D03*
X31023Y38480D02*
D03*
X28871Y38437D02*
D03*
X17471Y38637D02*
D03*
X15321D02*
D03*
X19120Y38040D02*
D03*
X24120D02*
D03*
X29120Y18040D02*
D03*
X26620Y13040D02*
D03*
X24120Y18040D02*
D03*
X21620Y13040D02*
D03*
X16620Y43040D02*
D03*
Y23040D02*
D03*
X19120Y18040D02*
D03*
X16620Y13040D02*
D03*
X11620Y23040D02*
D03*
X14120Y18040D02*
D03*
X11620Y13040D02*
D03*
X8550Y34100D02*
D03*
X9600Y25500D02*
D03*
X12400Y35950D02*
D03*
X26050Y36400D02*
D03*
X27238Y37702D02*
D03*
X13570Y30094D02*
D03*
X9112Y32363D02*
D03*
X22200Y32500D02*
D03*
X24350Y27750D02*
D03*
X17303Y27483D02*
D03*
X23950Y23950D02*
D03*
X21675Y41150D02*
D03*
X8625Y39700D02*
D03*
X21050Y22475D02*
D03*
X15950Y32668D02*
D03*
X11274Y26234D02*
D03*
X23421Y28462D02*
D03*
X15103Y27248D02*
D03*
X30330Y33455D02*
D03*
X28036Y31026D02*
D03*
X25846Y16783D02*
D03*
X8700Y37700D02*
D03*
X11289Y24837D02*
D03*
X11000Y28150D02*
D03*
X29263Y29949D02*
D03*
X21932Y36378D02*
D03*
X14265Y33389D02*
D03*
X13519Y34281D02*
D03*
X13597Y37677D02*
D03*
X11040Y29305D02*
D03*
X24570Y26137D02*
D03*
X22884Y37802D02*
D03*
X9624Y37710D02*
D03*
X27085Y34350D02*
D03*
X28100Y34375D02*
D03*
X26800Y19104D02*
D03*
X12843Y32255D02*
D03*
X26900Y16750D02*
D03*
X8705Y36238D02*
D03*
X26775Y31950D02*
D03*
D44*
X19771Y48772D02*
D03*
D45*
X19575Y32275D02*
D03*
X20675Y32475D02*
D03*
M02*
