G04*
G04 #@! TF.GenerationSoftware,Altium Limited,Altium Designer,25.6.2 (33)*
G04*
G04 Layer_Color=8421504*
%FSLAX43Y43*%
%MOMM*%
G71*
G04*
G04 #@! TF.SameCoordinates,E44AA5C3-C564-4ECB-96BF-9DEC15B88942*
G04*
G04*
G04 #@! TF.FilePolarity,Positive*
G04*
G01*
G75*
%ADD16R,0.650X0.650*%
%ADD17R,0.239X0.931*%
%ADD18R,0.025X0.025*%
%ADD19R,1.500X1.300*%
%ADD20R,0.650X0.650*%
%ADD21R,2.200X4.300*%
%ADD22R,0.931X0.239*%
G36*
X12600Y35557D02*
Y36664D01*
X11493D01*
Y35557D01*
X12600D01*
D02*
G37*
G36*
X26166Y35544D02*
Y36651D01*
X25059D01*
Y35544D01*
X26166D01*
D02*
G37*
D16*
X13575Y30075D02*
D03*
X27525Y37850D02*
D03*
X13575Y30975D02*
D03*
X27525Y38750D02*
D03*
D17*
X11797Y37601D02*
D03*
X25363Y37588D02*
D03*
X26363D02*
D03*
X25863D02*
D03*
X24863D02*
D03*
Y34607D02*
D03*
X25363D02*
D03*
X25863D02*
D03*
X26363D02*
D03*
X12297Y37601D02*
D03*
X11297D02*
D03*
Y34620D02*
D03*
X11797D02*
D03*
X12297D02*
D03*
X12797D02*
D03*
Y37601D02*
D03*
D18*
X12047Y36111D02*
D03*
X25613Y36097D02*
D03*
D19*
X17400Y36700D02*
D03*
X15441Y36715D02*
D03*
X29102Y36631D02*
D03*
X30934Y36645D02*
D03*
X29102Y38531D02*
D03*
X17400Y38600D02*
D03*
X15441Y38615D02*
D03*
X30934Y38545D02*
D03*
D20*
X12902Y38866D02*
D03*
X28378Y33176D02*
D03*
X13802Y38866D02*
D03*
X27478Y33176D02*
D03*
D21*
X20051Y22129D02*
D03*
Y30929D02*
D03*
D22*
X27103Y35347D02*
D03*
Y35847D02*
D03*
Y36347D02*
D03*
Y36847D02*
D03*
X24122D02*
D03*
Y36347D02*
D03*
Y35347D02*
D03*
Y35847D02*
D03*
X10556Y35861D02*
D03*
X13537Y36361D02*
D03*
Y35361D02*
D03*
Y36861D02*
D03*
X10556D02*
D03*
Y36361D02*
D03*
Y35361D02*
D03*
X13537Y35861D02*
D03*
M02*
