G04*
G04 #@! TF.GenerationSoftware,Altium Limited,Altium Designer,24.0.1 (36)*
G04*
G04 Layer_Color=8388736*
%FSLAX43Y43*%
%MOMM*%
G71*
G04*
G04 #@! TF.SameCoordinates,2C614A2D-1525-484C-BEF9-AF12351BE775*
G04*
G04*
G04 #@! TF.FilePolarity,Positive*
G04*
G01*
G75*
%ADD10C,0.250*%
%ADD13C,0.200*%
%ADD16C,0.500*%
%ADD17C,0.254*%
D10*
X4989Y48010D02*
G03*
X6989Y48010I1000J0D01*
G01*
Y42910D02*
G03*
X4989Y42910I-1000J0D01*
G01*
X5009Y13669D02*
G03*
X7009Y13669I1000J0D01*
G01*
Y8569D02*
G03*
X5009Y8569I-1000J0D01*
G01*
X35286Y11048D02*
G03*
X33286Y11048I-1000J0D01*
G01*
Y16148D02*
G03*
X35286Y16148I1000J0D01*
G01*
X35190Y42357D02*
G03*
X33190Y42357I-1000J0D01*
G01*
Y47457D02*
G03*
X35190Y47457I1000J0D01*
G01*
D13*
X35200Y11050D02*
X35289Y10961D01*
X4953Y8551D02*
X4995Y8509D01*
X5000Y48050D02*
Y52825D01*
Y52825D02*
X35206Y52825D01*
X4984Y43000D02*
X4984Y13729D01*
X35258Y16017D02*
Y42310D01*
X35206Y47475D02*
Y52825D01*
X4995Y5000D02*
X35289D01*
X4995D02*
X4995Y8509D01*
X35289Y10961D02*
X35289Y5000D01*
D16*
X9830Y51143D02*
G03*
X7083Y48670I-355J-2368D01*
G01*
X32371Y50416D02*
G03*
X30741Y51092I-1631J-1631D01*
G01*
X33027Y48834D02*
G03*
X32371Y50416I-2237J0D01*
G01*
X9836Y51155D02*
X30664Y51155D01*
X33027Y48834D02*
X33027Y10127D01*
X30325Y7425D02*
X33027Y10127D01*
X7089Y48682D02*
X7089Y7425D01*
X30325D01*
D17*
X0Y-44D02*
X40174D01*
X0Y57850D02*
X40174D01*
Y-44D02*
Y57850D01*
X0Y-44D02*
Y57850D01*
M02*
