G04*
G04 #@! TF.GenerationSoftware,Altium Limited,Altium Designer,24.0.1 (36)*
G04*
G04 Layer_Color=16711935*
%FSLAX43Y43*%
%MOMM*%
G71*
G04*
G04 #@! TF.SameCoordinates,2C614A2D-1525-484C-BEF9-AF12351BE775*
G04*
G04*
G04 #@! TF.FilePolarity,Negative*
G04*
G01*
G75*
%ADD10C,0.250*%
%ADD13C,0.200*%
%ADD16C,0.500*%
%ADD17C,0.254*%
%ADD25R,0.800X0.800*%
%ADD27R,1.703X1.503*%
%ADD28R,0.800X0.800*%
%ADD29C,3.000*%
%ADD30C,1.854*%
G04:AMPARAMS|DCode=31|XSize=2.153mm|YSize=2.153mm|CornerRadius=0.589mm|HoleSize=0mm|Usage=FLASHONLY|Rotation=180.000|XOffset=0mm|YOffset=0mm|HoleType=Round|Shape=RoundedRectangle|*
%AMROUNDEDRECTD31*
21,1,2.153,0.975,0,0,180.0*
21,1,0.975,2.153,0,0,180.0*
1,1,1.178,-0.488,0.488*
1,1,1.178,0.488,0.488*
1,1,1.178,0.488,-0.488*
1,1,1.178,-0.488,-0.488*
%
%ADD31ROUNDEDRECTD31*%
%ADD32C,0.203*%
%ADD33C,1.703*%
%ADD34R,1.854X1.854*%
%ADD35C,2.153*%
%ADD36C,0.803*%
D10*
X4989Y48010D02*
G03*
X6989Y48010I1000J0D01*
G01*
Y42910D02*
G03*
X4989Y42910I-1000J0D01*
G01*
X5009Y13669D02*
G03*
X7009Y13669I1000J0D01*
G01*
Y8569D02*
G03*
X5009Y8569I-1000J0D01*
G01*
X35286Y11048D02*
G03*
X33286Y11048I-1000J0D01*
G01*
Y16148D02*
G03*
X35286Y16148I1000J0D01*
G01*
X35190Y42357D02*
G03*
X33190Y42357I-1000J0D01*
G01*
Y47457D02*
G03*
X35190Y47457I1000J0D01*
G01*
D13*
X35200Y11050D02*
X35289Y10961D01*
X4953Y8551D02*
X4995Y8509D01*
X5000Y48050D02*
Y52825D01*
Y52825D02*
X35206Y52825D01*
X4984Y43000D02*
X4984Y13729D01*
X35258Y16017D02*
Y42310D01*
X35206Y47475D02*
Y52825D01*
X4995Y5000D02*
X35289D01*
X4995D02*
X4995Y8509D01*
X35289Y10961D02*
X35289Y5000D01*
D16*
X9830Y51143D02*
G03*
X7083Y48670I-355J-2368D01*
G01*
X32371Y50416D02*
G03*
X30741Y51092I-1631J-1631D01*
G01*
X33027Y48834D02*
G03*
X32371Y50416I-2237J0D01*
G01*
X9836Y51155D02*
X30664Y51155D01*
X33027Y48834D02*
X33027Y10127D01*
X30325Y7425D02*
X33027Y10127D01*
X7089Y48682D02*
X7089Y7425D01*
X30325D01*
D17*
X0Y-44D02*
X40174D01*
X0Y57850D02*
X40174D01*
Y-44D02*
Y57850D01*
X0Y-44D02*
Y57850D01*
D25*
X11359Y35183D02*
D03*
X13914Y31321D02*
D03*
X26770Y31010D02*
D03*
X24981Y36172D02*
D03*
X30352Y34364D02*
D03*
Y33464D02*
D03*
X13514Y26150D02*
D03*
Y27050D02*
D03*
X13529Y24012D02*
D03*
Y24912D02*
D03*
X24981Y35272D02*
D03*
X28005Y31027D02*
D03*
X15950Y32650D02*
D03*
X12843Y31355D02*
D03*
X11359Y36083D02*
D03*
X13914Y32221D02*
D03*
X12843Y32255D02*
D03*
X28005Y31927D02*
D03*
X26770Y31910D02*
D03*
X15950Y33550D02*
D03*
D27*
X15435Y36716D02*
D03*
X17434Y36744D02*
D03*
X28889Y36529D02*
D03*
X31023Y36580D02*
D03*
X15435Y38616D02*
D03*
X17434Y38644D02*
D03*
X28889Y38429D02*
D03*
X31023Y38480D02*
D03*
D28*
X9500Y31075D02*
D03*
X9629Y35107D02*
D03*
X8711Y38786D02*
D03*
X26175Y34350D02*
D03*
X22837Y36312D02*
D03*
X21992Y38938D02*
D03*
X27075Y34350D02*
D03*
X21933Y35189D02*
D03*
X22833D02*
D03*
X21937Y36312D02*
D03*
X22892Y38938D02*
D03*
X22879Y37817D02*
D03*
X21979D02*
D03*
X26800Y19104D02*
D03*
X25900D02*
D03*
X25900Y16750D02*
D03*
X12622Y37697D02*
D03*
X9605Y36238D02*
D03*
X8724Y37710D02*
D03*
X8705Y36238D02*
D03*
X9624Y37710D02*
D03*
X9611Y38786D02*
D03*
X8600Y31075D02*
D03*
X8729Y35107D02*
D03*
X13522Y37697D02*
D03*
X26800Y16750D02*
D03*
D29*
X3035Y45551D02*
D03*
X3029Y11256D02*
D03*
X37193Y45030D02*
D03*
D30*
X8620Y11510D02*
D03*
X31480D02*
D03*
X8620Y26750D02*
D03*
Y24210D02*
D03*
Y16590D02*
D03*
Y19130D02*
D03*
Y14050D02*
D03*
Y21670D02*
D03*
X31480D02*
D03*
Y24210D02*
D03*
Y14050D02*
D03*
Y19130D02*
D03*
Y26750D02*
D03*
Y16590D02*
D03*
Y29290D02*
D03*
D31*
X21744Y43780D02*
D03*
X13378Y43751D02*
D03*
X29912Y43803D02*
D03*
D32*
X6989Y44960D02*
D03*
Y43960D02*
D03*
Y42960D02*
D03*
Y46960D02*
D03*
Y45960D02*
D03*
Y47960D02*
D03*
X7009Y10619D02*
D03*
Y9619D02*
D03*
Y8619D02*
D03*
Y12619D02*
D03*
Y11619D02*
D03*
Y13619D02*
D03*
X33286Y14098D02*
D03*
Y15098D02*
D03*
Y16098D02*
D03*
Y12098D02*
D03*
Y13098D02*
D03*
Y11098D02*
D03*
X33190Y45407D02*
D03*
Y46407D02*
D03*
Y47407D02*
D03*
Y43407D02*
D03*
Y44407D02*
D03*
Y42407D02*
D03*
D33*
X2475Y55350D02*
D03*
X37750D02*
D03*
X2475Y2450D02*
D03*
X37750D02*
D03*
D34*
X8620Y29290D02*
D03*
D35*
X9878Y43751D02*
D03*
X26412Y43803D02*
D03*
X18244Y43780D02*
D03*
D36*
X24325Y32000D02*
D03*
M02*
